<svg xmlns="http://www.w3.org/2000/svg" width="16.111" height="9.953" viewBox="0 0 16.111 9.953">

    <g transform="translate(17.786 10.979) rotate(180)">
        <path fill="#24ba7b"
            d="M2.736,6.017.142,3.424.134,3.415l0,0,0,0,0-.005,0,0,0-.006,0,0L.105,3.382l0,0L.1,3.373l0,0L.091,3.363l0,0L.084,3.353l0,0,0-.007,0,0,0-.006,0,0,0-.005,0-.006,0,0,0-.008v0a.487.487,0,0,1,.1-.579L2.736.142A.486.486,0,0,1,3.424.83L1.661,2.593h7.9a.486.486,0,0,1,0,.973H1.66L3.424,5.33a.486.486,0,1,1-.687.687Z"
            transform="translate(1.675 1.026)" />
        <path fill="#abb2bc"
            d="M2.735,6.015.142,3.422.134,3.414l0,0,0,0,0-.005,0,0,0-.006,0,0L.105,3.381l0,0L.1,3.371l0,0L.091,3.361l0,0L.084,3.352l0,0,0-.007,0,0,0-.006,0,0,0-.005,0-.006,0,0,0-.008v0a.486.486,0,0,1,.1-.579L2.735.142A.486.486,0,0,1,3.423.83L1.66,2.592h7.9a.486.486,0,0,1,0,.972H1.66L3.423,5.328a.486.486,0,1,1-.687.687Z"
            transform="translate(17.786 10.979) rotate(180)" />
    </g>
</svg>