<svg xmlns="http://www.w3.org/2000/svg" width="20" height="18" viewBox="0 0 20 18">

    <g transform="translate(-2 -3)">
        <path fill="#fff" opacity="0.5"
            d="M.4,0H1.6A.4.4,0,0,1,2,.4V1.6a.4.4,0,0,1-.4.4H.4A.4.4,0,0,1,0,1.6V.4A.4.4,0,0,1,.4,0Z"
            transform="translate(8 6)" />
        <path fill="#fff"
            d="M17,18H3a3,3,0,0,1-3-3V3A3,3,0,0,1,3,0H17a3,3,0,0,1,3,3V15A3,3,0,0,1,17,18ZM2,8v7a1,1,0,0,0,1,1H17a1,1,0,0,0,1-1V8ZM3,2A1,1,0,0,0,2,3V6H18V3a1,1,0,0,0-1-1Zm7.6,3H9.4A.4.4,0,0,1,9,4.6V3.4A.4.4,0,0,1,9.4,3h1.2a.4.4,0,0,1,.4.4V4.6A.4.4,0,0,1,10.6,5Zm-6,0H3.4A.4.4,0,0,1,3,4.6V3.4A.4.4,0,0,1,3.4,3H4.6a.4.4,0,0,1,.4.4V4.6A.4.4,0,0,1,4.6,5Z"
            transform="translate(2 3)" />
    </g>
</svg>