<svg width="49" height="59" viewBox="0 0 49 59" fill="none" xmlns="http://www.w3.org/2000/svg">
<path opacity="0.2" d="M27.303 11.1244C27.303 5.31037 22.3959 0.417892 17.082 2.77712C13.8431 4.21511 10.866 6.33625 8.34076 9.05578C3.31165 14.4717 0.486328 21.8174 0.486328 29.4767C0.486328 37.136 3.31165 44.4816 8.34076 49.8976C10.866 52.6171 13.8431 54.7383 17.082 56.1763C22.3959 58.5355 27.303 53.643 27.303 47.829L27.303 11.1244Z" fill="#ABB2BC"/>
<path d="M48.3613 30.5048C48.3613 31.3661 47.767 32.0779 46.9959 32.1906L46.7815 32.2061L15.1856 32.2061C14.3131 32.2061 13.6058 31.4444 13.6058 30.5048C13.6058 29.6435 14.2001 28.9317 14.9712 28.819L15.1856 28.8035L46.7815 28.8035C47.654 28.8035 48.3613 29.5652 48.3613 30.5048Z" fill="white"/>
<path d="M29.0442 42.9651C29.6624 43.6281 29.6646 44.7053 29.049 45.3711C28.4893 45.9764 27.6118 46.0333 26.9923 45.5406L26.8148 45.3763L14.0711 31.7113C13.5074 31.1068 13.4561 30.1583 13.9173 29.4912L14.071 29.3002L26.8147 15.6329C27.4329 14.9699 28.4332 14.9721 29.0489 15.6379C29.6086 16.2431 29.6577 17.1884 29.1976 17.8534L29.0443 18.0439L17.4253 30.5064L29.0442 42.9651Z" fill="white"/>
</svg>
