<svg xmlns="http://www.w3.org/2000/svg" width="15.886" height="10.245" viewBox="0 0 15.886 10.245">
    <g transform="translate(20.488 8.411) rotate(180)">
        <path fill="#0ca564"
            d="M2.638,2.475H9.123a.825.825,0,1,1,0,1.65H2.638l1.2,1.023A.825.825,0,0,1,2.765,6.4L.59,4.547a1.612,1.612,0,0,1,0-2.493L2.765.2A.825.825,0,1,1,3.836,1.453Z"
            transform="translate(4.602 -1.834)" />
        <path fill="#2E303C"
            d="M2.638,2.475H9.123a.825.825,0,1,1,0,1.65H2.638l1.2,1.023A.825.825,0,0,1,2.765,6.4L.59,4.547a1.612,1.612,0,0,1,0-2.493L2.765.2A.825.825,0,1,1,3.836,1.453Z"
            transform="translate(20.488 8.411) rotate(180)" />
    </g>
</svg>