<svg xmlns="http://www.w3.org/2000/svg" width="14.18" height="14.18" viewBox="0 0 14.18 14.18">

    <path fill="#fff" opacity="0.5"
        d="M6.617,2.363A.315.315,0,0,1,6.3,2.048V.788a.788.788,0,0,1,1.575,0V2.048a.315.315,0,0,1-.315.315Zm-6.3,0A.315.315,0,0,1,0,2.048V.788a.788.788,0,0,1,1.575,0V2.048a.315.315,0,0,1-.315.315Z"
        transform="translate(3.151)" />
    <path fill="#fff"
        d="M11.817,13.392H2.363A2.366,2.366,0,0,1,0,11.029V.315A.315.315,0,0,1,.315,0H2.206a.158.158,0,0,1,.157.157V1.418a.158.158,0,0,1-.157.157h-.63v.788H12.6V1.575h-.63a.158.158,0,0,1-.157-.157V.157A.158.158,0,0,1,11.974,0h1.891a.315.315,0,0,1,.315.315V11.029A2.366,2.366,0,0,1,11.817,13.392ZM1.575,3.939v7.09a.789.789,0,0,0,.788.788h9.454a.789.789,0,0,0,.788-.788V3.939Zm9.138,6.3h-4.1A.315.315,0,0,1,6.3,9.926V8.981a.316.316,0,0,1,.315-.316h4.1a.316.316,0,0,1,.316.316v.945A.316.316,0,0,1,10.714,10.241Zm-5.672,0H3.624c-.261,0-.473-.141-.473-.315V8.981c0-.174.212-.316.473-.316H5.042c.261,0,.473.142.473.316v.945C5.515,10.1,5.3,10.241,5.042,10.241ZM10.556,7.09H9.138c-.261,0-.473-.141-.473-.315V5.829c0-.174.212-.315.473-.315h1.418c.261,0,.473.141.473.315v.946C11.029,6.949,10.817,7.09,10.556,7.09Zm-2.993,0h-4.1a.316.316,0,0,1-.316-.315V5.829a.316.316,0,0,1,.316-.315h4.1a.315.315,0,0,1,.315.315v.946A.315.315,0,0,1,7.563,7.09Zm.945-5.515H5.672a.158.158,0,0,1-.157-.157V.157A.158.158,0,0,1,5.672,0H8.508a.158.158,0,0,1,.157.157V1.418A.158.158,0,0,1,8.508,1.575Z"
        transform="translate(0 0.788)" />
</svg>