<svg xmlns="http://www.w3.org/2000/svg" width="18" height="23.999" viewBox="0 0 18 23.999">
    <g transform="translate(0 0)">
        <path fill="#fff" opacity="0.5" d="M1,0H5A1,1,0,0,1,5,2H1A1,1,0,0,1,1,0Z" transform="translate(4 13)" />
        <path fill="#fff"
            d="M1,24a1,1,0,0,1-1-1V1A1,1,0,0,1,1,0h.4a1,1,0,0,1,1,1V23a1,1,0,0,1-1,1Zm3.6-3.6a1,1,0,0,1-1-1V19a1,1,0,0,1,1-1h7.6a1,1,0,0,1,1,1v.4a1,1,0,0,1-1,1Zm0-9.6a1,1,0,0,1-1-1V9.4a1,1,0,0,1,1-1h7.6a1,1,0,0,1,1,1v.4a1,1,0,0,1-1,1ZM4.6,6a1,1,0,0,1-1-1V4.6a1,1,0,0,1,1-1H17a1,1,0,0,1,1,1V5a1,1,0,0,1-1,1Z"
            transform="translate(0 0)" />
    </g>
</svg>