<svg xmlns="http://www.w3.org/2000/svg" width="12" height="15" viewBox="0 0 12 15">

    <g transform="translate(0.177 0)">
        <path fill="#fff" opacity="0.6" d="M1,0A1,1,0,1,1,0,1,1,1,0,0,1,1,0Z" transform="translate(3.5 7.5)" />
        <path fill="#fff"
            d="M11.25,15H4.875A4.88,4.88,0,0,1,0,10.125V9.75a4.516,4.516,0,0,1,2.25-3.9V4.5A1.5,1.5,0,0,1,3.75,3V.75a.75.75,0,1,1,1.5,0V3a1.5,1.5,0,0,1,1.5,1.5V5.852A4.515,4.515,0,0,1,9,9.75v1.5a2.253,2.253,0,0,0,2.25,2.25.75.75,0,0,1,0,1.5ZM4.5,9.75a.751.751,0,0,1,.75.751,3,3,0,0,0,3,3,3.718,3.718,0,0,1-.75-2.25V9.75a3,3,0,0,0-6,0v.375A3.379,3.379,0,0,0,4.875,13.5H4.9a4.49,4.49,0,0,1-1.145-3A.751.751,0,0,1,4.5,9.75ZM3.9,4.5a.15.15,0,0,0-.15.15V5.1a.15.15,0,0,0,.15.15H5.1a.15.15,0,0,0,.15-.15V4.65A.15.15,0,0,0,5.1,4.5Z"
            transform="translate(-0.177 0)" />
    </g>
</svg>