<svg xmlns="http://www.w3.org/2000/svg" width="17" height="18" viewBox="0 0 17 18">

    <g transform="translate(-19.411 -13.186)">
        <g transform="translate(16.095 10.946)">
            <path fill="#fff" opacity="0.5"
                d="M-10.222,9.4a.924.924,0,0,1-.944-.9V7.15a4,4,0,0,1,1.786-3.3,3.068,3.068,0,0,1-.842-2.1A3.234,3.234,0,0,1-6.917-1.4,3.235,3.235,0,0,1-3.611,1.751a3.066,3.066,0,0,1-.842,2.1,4,4,0,0,1,1.786,3.3V8.5a.924.924,0,0,1-.944.9Zm.17-1.953V7.8a.245.245,0,0,0,.25.239h5.771A.245.245,0,0,0-3.78,7.8V7.447A3.069,3.069,0,0,0-6.917,4.458,3.068,3.068,0,0,0-10.052,7.447Zm1.288-5.7a1.807,1.807,0,0,0,1.847,1.76,1.808,1.808,0,0,0,1.849-1.76A1.808,1.808,0,0,0-6.917-.01,1.807,1.807,0,0,0-8.764,1.751ZM0,7V5.25H1V7ZM0,1.75V0H1V1.75Z"
                transform="translate(17.316 7.24)" />
            <path fill="#fff"
                d="M11.334,18h-8.5A2.772,2.772,0,0,1,0,15.3V2.7A2.772,2.772,0,0,1,2.833,0h8.5a2.9,2.9,0,0,1,2.111.9h.722A2.772,2.772,0,0,1,17,3.6V14.4a2.772,2.772,0,0,1-2.833,2.7h-.722A2.9,2.9,0,0,1,11.334,18ZM2.833,1.8a.924.924,0,0,0-.944.9V15.3a.924.924,0,0,0,.944.9h8.5a.924.924,0,0,0,.944-.9V2.7a.924.924,0,0,0-.944-.9Zm11.334.9V15.3a.967.967,0,0,0,.668-.265.872.872,0,0,0,.276-.635V3.6A.924.924,0,0,0,14.167,2.7Z"
                transform="translate(3.316 2.24)" />
        </g>
    </g>
</svg>