<svg xmlns="http://www.w3.org/2000/svg" width="18.093" height="19.96" viewBox="0 0 18.093 19.96">

    <g transform="translate(-2.907 -2.154)">
        <path fill="#fff" opacity="0.5"
            d="M1.927,7.375A1,1,0,0,1,.074,6.623,6.977,6.977,0,0,0,.583,4,6.977,6.977,0,0,0,.076,1.375,1,1,0,0,1,1.931.626,8.977,8.977,0,0,1,2.583,4,8.977,8.977,0,0,1,1.927,7.375Z"
            transform="translate(18.417 8.135)" />
        <path fill="#fff"
            d="M8.123,20.08A9,9,0,0,1,8.691,2.116l.093-1.065A1.006,1.006,0,0,1,9.891.158a1.052,1.052,0,0,1,.577.235L13.231,2.67a.963.963,0,0,1,.117,1.391,1.037,1.037,0,0,1-.866.338L9.543,4.143H9.517a7,7,0,1,0,3.542,12.61,1,1,0,1,1,1.187,1.609,8.961,8.961,0,0,1-5.33,1.755Q8.522,20.115,8.123,20.08ZM8.6,17a.6.6,0,0,1-.6-.6v-.954a2.852,2.852,0,0,1-3-2.667H6.5a.476.476,0,0,1,.5.445.475.475,0,0,0,.5.445H8V11.89A2.852,2.852,0,0,1,5,9.223,2.851,2.851,0,0,1,8,6.556V5.6A.6.6,0,0,1,8.6,5h.8a.6.6,0,0,1,.6.6v.957a2.852,2.852,0,0,1,3,2.667H11.5a.476.476,0,0,1-.5-.445.475.475,0,0,0-.5-.444H10v1.778a2.852,2.852,0,0,1,3,2.667,2.851,2.851,0,0,1-3,2.667V16.4a.6.6,0,0,1-.6.6ZM10,13.667a1.068,1.068,0,0,0,.707-.261A.835.835,0,0,0,11,12.779a.95.95,0,0,0-1-.889ZM7,9.219a.95.95,0,0,0,1,.889V8.33A.95.95,0,0,0,7,9.219Z"
            transform="translate(3 2)" />
    </g>
</svg>