<svg xmlns="http://www.w3.org/2000/svg" width="18.882" height="28.456" viewBox="0 0 18.882 28.456">

    <path fill="#2E303C" opacity="0.5" d="M.956,0H2.867a.956.956,0,1,1,0,1.911H.956A.956.956,0,0,1,.956,0Z"
        transform="translate(11.353 20.028)" />
    <path fill="#2E303C"
        d="M16.05,17.309H2.832A2.862,2.862,0,0,1,0,14.424V2.885A2.862,2.862,0,0,1,2.832,0h11.33a2.862,2.862,0,0,1,2.832,2.885V4.01a2.888,2.888,0,0,1,1.888,2.721v7.693A2.862,2.862,0,0,1,16.05,17.309ZM2.832,5.77a.954.954,0,0,0-.944.962v7.693a.954.954,0,0,0,.944.962H16.05a.954.954,0,0,0,.944-.962V6.731a.954.954,0,0,0-.944-.962Zm0-3.847a.962.962,0,0,0,0,1.923H15.106V2.885a.954.954,0,0,0-.944-.962Z"
        transform="translate(0 11.147)" />
    <path fill="#0ca564"
        d="M3.421,3.21H7.49a1.07,1.07,0,1,1,0,2.14H3.421L4.975,6.676A1.07,1.07,0,0,1,3.585,8.3L.765,5.9a2.09,2.09,0,0,1,0-3.233L3.585.256A1.07,1.07,0,0,1,4.975,1.884Z"
        transform="translate(4.705 8.56) rotate(-90)" />
</svg>