<svg xmlns="http://www.w3.org/2000/svg" width="23.768" height="21.026" viewBox="0 0 23.768 21.026">
    <g transform="translate(-2.438 -3.352)">
        <rect fill="#fff" opacity="0.5" width="5.485" height="2.742" rx="0.6" transform="translate(11.579 21.549)" />
        <path fill="#fff"
            d="M20.2,21.026H16.162a.708.708,0,0,1-.713-.7v-.934a.708.708,0,0,1,.713-.7H20.2a1.18,1.18,0,0,0,1.189-1.168v-4.2a.472.472,0,0,0-.476-.467H18.3a.472.472,0,0,0-.475.467v.7a2.359,2.359,0,0,1-2.377,2.336H8.319a2.359,2.359,0,0,1-2.377-2.336v-.7a.472.472,0,0,0-.475-.467H2.852a.472.472,0,0,0-.475.467v4.2a1.18,1.18,0,0,0,1.188,1.168H7.606a.708.708,0,0,1,.713.7v.934a.708.708,0,0,1-.713.7H3.565A3.539,3.539,0,0,1,0,17.521V10.513H6.418a1.887,1.887,0,0,1,1.9,1.869V13.55a.472.472,0,0,0,.476.467h6.179a.472.472,0,0,0,.475-.467V12.382a1.888,1.888,0,0,1,1.9-1.869h6.417v7.008A3.539,3.539,0,0,1,20.2,21.026Zm-8.319-9.345a2.07,2.07,0,0,1-1.532-.688L7.448,7.646a1.249,1.249,0,0,1,0-1.662,1.024,1.024,0,0,1,1.532,0l1.766,2.11V1.168a1.14,1.14,0,1,1,2.279,0V8.094l1.765-2.11a1.024,1.024,0,0,1,1.532,0,1.249,1.249,0,0,1,0,1.662l-2.9,3.346A2.07,2.07,0,0,1,11.885,11.681Z"
            transform="translate(2.438 3.352)" />
    </g>
</svg>