<svg xmlns="http://www.w3.org/2000/svg" width="19.869" height="13.602" viewBox="0 0 19.869 13.602">

    <g transform="translate(-4.664 -5.682)">
        <path fill="#fff"
            d="M5.121,13.6h0A6.129,6.129,0,0,1,0,11.169,21.221,21.221,0,0,1,2.47,1.712,8.4,8.4,0,0,1,7.176,0h.051l.184.182A9.984,9.984,0,0,0,3.02,2.254,1.144,1.144,0,0,0,3.13,2.2,15.316,15.316,0,0,1,9.742.695a15.551,15.551,0,0,1,6.914,1.648A11.146,11.146,0,0,0,12.447.271L12.7.025a8.4,8.4,0,0,1,4.687,1.7,20.818,20.818,0,0,1,2.485,9.456h0l-.007,0c-.023,0-.081.061-.178.161a6.906,6.906,0,0,1-5.111,2.168l-.014-.016c-.2-.229-.7-.818-1.074-1.333A5.44,5.44,0,0,0,16.5,10.265a11.411,11.411,0,0,1-6.2,1.918A16.786,16.786,0,0,1,4,10.719H4a.1.1,0,0,1-.081-.04v-.008a.106.106,0,0,0-.083-.042H3.753a5.041,5.041,0,0,0-.455-.268,5.4,5.4,0,0,0,2.926,1.891c-.551.629-1.1,1.343-1.1,1.35Zm7.872-7.656,0,.006a1.291,1.291,0,1,0,0-.006Zm-6.216,0-.006,0h0a1.8,1.8,0,0,0,0,3.6,1.8,1.8,0,0,0,.006-3.6Z"
            transform="translate(4.664 5.682)" />
    </g>
</svg>