<svg xmlns="http://www.w3.org/2000/svg" width="18" height="20" viewBox="0 0 18 20">
    <g transform="translate(-3 -1)">
        <path fill="#fff" opacity="0.5"
            d="M0,13V9A1,1,0,0,1,2,9v4a1,1,0,1,1-2,0ZM10,7V3A1,1,0,1,0,8,3V4A1,1,0,1,1,6,4V3a3,3,0,0,1,6,0V7a1,1,0,0,1-2,0Z"
            transform="translate(3 7)" />
        <path fill="#fff"
            d="M16,19V9A7,7,0,0,0,2,9v3a1,1,0,0,1-2,0V9A9,9,0,0,1,18,9V19a1,1,0,0,1-2,0Zm-3,0V17H9a3,3,0,0,1-3-3V13a1,1,0,0,1,2,0v1a1,1,0,0,0,1,1h5a1,1,0,0,1,1,1v3a1,1,0,0,1-2,0ZM9,20a6,6,0,0,1-6-6V9A6,6,0,0,1,15,9v4a1,1,0,1,1-2,0V9A4,4,0,0,0,5,9v5a4,4,0,0,0,4,4h2a1,1,0,1,1,0,2Z"
            transform="translate(3 1)" />
    </g>
</svg>