<svg xmlns="http://www.w3.org/2000/svg" width="19.016" height="21.053" viewBox="0 0 19.016 21.053">

    <g transform="translate(0 -1.549)">
        <path  fill="#fff" opacity="0.5"
            d="M-.006.2A.2.2,0,0,1,.2,0H6.1a.2.2,0,0,1,.2.2H6.295A3.154,3.154,0,0,1,3.148,3.153,3.154,3.154,0,0,1,0,.2Z"
            transform="translate(6.112 19.448)" />
        <path  fill="#fff"
            d="M17.959,16.639H1.057a1.04,1.04,0,1,1,0-2.08H2.113L2.643,8.3a6.687,6.687,0,0,1,1.566-3.77,6.873,6.873,0,0,1,3.4-2.186A1.55,1.55,0,0,1,7.4,1.56,1.574,1.574,0,0,1,8.98,0h1.056a1.574,1.574,0,0,1,1.585,1.56,1.549,1.549,0,0,1-.212.782,6.873,6.873,0,0,1,3.4,2.186A6.688,6.688,0,0,1,16.373,8.3l.53,6.261h1.057a1.04,1.04,0,1,1,0,2.08ZM9.508,4.137A4.294,4.294,0,0,0,8.344,4.3l-.154.043a4.745,4.745,0,0,0-3.442,4.13l-.516,6.089H14.783l-.516-6.089a4.745,4.745,0,0,0-3.442-4.13L10.672,4.3A4.294,4.294,0,0,0,9.508,4.137Z"
            transform="translate(0 1.549)" />
    </g>
</svg>