<svg xmlns="http://www.w3.org/2000/svg" width="20" height="20" viewBox="0 0 20 20">
    <g transform="translate(-2 -2)">
        <path fill="#fff" opacity="0.5" d="M5,4a6.682,6.682,0,0,0,5-2.182C9.387.888,7.142,0,5,0S.613.888,0,1.818A6.682,6.682,0,0,0,5,4Z"
            transform="translate(7 14)" />
        <path fill="#fff"
            d="M10,20A10,10,0,1,1,20,10,10.011,10.011,0,0,1,10,20ZM10,2a8,8,0,1,0,8,8A8.009,8.009,0,0,0,10,2Zm0,9a3,3,0,1,1,3-3A3,3,0,0,1,10,11Z"
            transform="translate(2 2)" />
    </g>
</svg>