<svg xmlns="http://www.w3.org/2000/svg" width="16" height="20" viewBox="0 0 16 20">

    <g transform="translate(-4 -2)">
        <path  fill="#fff" opacity="0.5"
            d="M.5.086,3.914,3.5a.294.294,0,0,1-.208.5H.294A.294.294,0,0,1,0,3.706V.294A.294.294,0,0,1,.5.086Z"
            transform="translate(13 5)" />
        <path  fill="#fff"
            d="M13,20H3a3,3,0,0,1-3-3V3A3,3,0,0,1,3,0H9.9a3.014,3.014,0,0,1,2.158.916l3.1,3.208A2.988,2.988,0,0,1,16,6.208V17A3,3,0,0,1,13,20ZM3,2A1,1,0,0,0,2,3V17a1,1,0,0,0,1,1H13a1,1,0,0,0,1-1V6.208a1,1,0,0,0-.281-.695L10.62,2.3A1.006,1.006,0,0,0,9.9,2Zm9,15H4a1,1,0,1,1,0-2h8a1,1,0,1,1,0,2Zm0-3H4a1,1,0,0,1,0-2h8a1,1,0,0,1,0,2Z"
            transform="translate(4 2)" />
    </g>
</svg>