<svg xmlns="http://www.w3.org/2000/svg" width="18" height="20" viewBox="0 0 18 20">

    <g transform="translate(-3 -2)">
        <path fill="#fff" opacity="0.5" d="M1,0H3A1,1,0,0,1,3,2H1A1,1,0,0,1,1,0Z" transform="translate(10 17)" />
        <path fill="#fff"
            d="M16,20H2a2,2,0,0,1-2-2V16a4,4,0,0,1,4-4h.1A7,7,0,1,1,16,7a6.944,6.944,0,0,1-2.1,5H14a4,4,0,0,1,4,4v2A2,2,0,0,1,16,20ZM4,14a2,2,0,0,0-2,2v2H16V16a2,2,0,0,0-2-2ZM9,2a5,5,0,1,0,5,5A5.006,5.006,0,0,0,9,2Zm0,9a4,4,0,1,1,4-4A4,4,0,0,1,9,11ZM9,4a3,3,0,1,0,3,3A3,3,0,0,0,9,4Z"
            transform="translate(3 2)" />
    </g>
</svg>