<svg xmlns="http://www.w3.org/2000/svg" width="16" height="15" viewBox="0 0 16 15">
   
    <g transform="translate(-4 -2)">
        <path  fill="#fff" opacity="0.5"
            d="M12,2V8a3.412,3.412,0,0,1-1.891-.664A7.355,7.355,0,0,0,6,6a8.958,8.958,0,0,0-2,.253V.4A7.042,7.042,0,0,1,6,0,3.412,3.412,0,0,1,7.891.664,7.355,7.355,0,0,0,12,2Z"
            transform="translate(4 4)" />
        <path  fill="#fff"
            d="M1,15a1,1,0,0,1-1-1V1A1,1,0,1,1,2,1,11.578,11.578,0,0,1,6,0,5.4,5.4,0,0,1,9,1a5.4,5.4,0,0,0,3,1,4.773,4.773,0,0,0,3.034-1L15.3.723A.4.4,0,0,1,15.592.6.4.4,0,0,1,16,1v8.68a.916.916,0,0,1-.2.564A4.747,4.747,0,0,1,12,12a5.4,5.4,0,0,1-3-1,5.4,5.4,0,0,0-3-1,11.575,11.575,0,0,0-4,1v3A1,1,0,0,1,1,15ZM6,8A7.359,7.359,0,0,1,10.11,9.336,3.409,3.409,0,0,0,12,10a2.751,2.751,0,0,0,1.8-.575.572.572,0,0,0,.2-.431V4.143a.321.321,0,0,0-.4-.311A7.454,7.454,0,0,1,12,4,7.353,7.353,0,0,1,7.89,2.664,3.409,3.409,0,0,0,6,2a9.938,9.938,0,0,0-3.257.857l-.54.216a.323.323,0,0,0-.2.3V8.437a.3.3,0,0,0,.4.282A11.313,11.313,0,0,1,6,8Z"
            transform="translate(4 2)" />
    </g>
</svg>