<svg xmlns="http://www.w3.org/2000/svg" width="20" height="17.997" viewBox="0 0 20 17.997">

    <g transform="translate(-2 -3)">
        <path fill="#fff" opacity="0.5" d="M1,0A1,1,0,1,1,0,1,1,1,0,0,1,1,0Z" transform="translate(9 8)" />
        <path fill="#fff"
            d="M16.091,17.91,10.723,15H9a4.016,4.016,0,0,1-2.92-1.267L3.909,14.91A.613.613,0,0,1,3.6,15a.59.59,0,0,1-.51-.288A.6.6,0,0,1,3,14.4V11.874A4,4,0,0,1,0,8V4A4,4,0,0,1,4,0h8a4,4,0,0,1,3.875,3H16a4,4,0,0,1,4,4v4a4,4,0,0,1-3,3.874V17.4a.608.608,0,0,1-.086.311.589.589,0,0,1-.509.287A.614.614,0,0,1,16.091,17.91Zm-8.127-5.2A2,2,0,0,0,9,13h2.277l3.42,2.053a.209.209,0,0,0,.1.028.2.2,0,0,0,.2-.2V13.6a.6.6,0,0,1,.6-.6H16a2,2,0,0,0,2-2V7a2,2,0,0,0-2-2V8a4,4,0,0,1-4,4H9.277ZM2,4V8a2,2,0,0,0,2,2h.4a.6.6,0,0,1,.6.6v1.281a.2.2,0,0,0,.2.2.194.194,0,0,0,.1-.029L8.723,10H12a2,2,0,0,0,2-2V4a2,2,0,0,0-2-2H4A2,2,0,0,0,2,4Zm8,2a1,1,0,1,1,1,1A1,1,0,0,1,10,6ZM4,6A1,1,0,1,1,5,7,1,1,0,0,1,4,6Z"
            transform="translate(2 3)" />
    </g>
</svg>