<svg xmlns="http://www.w3.org/2000/svg" width="19" height="17" viewBox="0 0 19 17">

    <g transform="translate(-2 -4)">
        <path  fill="#fff" opacity="0.5" d="M.4,0H7.6A.4.4,0,0,1,8,.4V1.6a.4.4,0,0,1-.4.4H.4A.4.4,0,0,1,0,1.6V.4A.4.4,0,0,1,.4,0Z"
            transform="translate(6 11)" />
        <path  fill="#fff" 
            d="M2.85,17A2.844,2.844,0,0,1,0,14.167V2.833A2.844,2.844,0,0,1,2.85,0h9.5A2.845,2.845,0,0,1,15.2,2.833V8.5h.95A2.844,2.844,0,0,1,19,11.333v2.834A2.844,2.844,0,0,1,16.15,17ZM15.2,14.167a.95.95,0,0,0,1.9,0V11.333a.948.948,0,0,0-.95-.944H15.2ZM1.9,2.833V14.167a.948.948,0,0,0,.95.944H13.3V2.833a.949.949,0,0,0-.951-.944H2.85A.948.948,0,0,0,1.9,2.833Zm2.28,10.39a.379.379,0,0,1-.38-.378V11.711a.379.379,0,0,1,.38-.378h6.84a.379.379,0,0,1,.38.378v1.133a.379.379,0,0,1-.38.378ZM7.03,5.667a.379.379,0,0,1-.38-.378V4.156a.379.379,0,0,1,.38-.378h3.99a.379.379,0,0,1,.38.378V5.289a.379.379,0,0,1-.38.378Zm-2.85,0a.38.38,0,0,1-.38-.378V4.156a.38.38,0,0,1,.38-.378H5.32a.38.38,0,0,1,.38.378V5.289a.38.38,0,0,1-.38.378Z"
            transform="translate(2 4)" />
    </g>
</svg>