<svg xmlns="http://www.w3.org/2000/svg" width="20" height="20" viewBox="0 0 20 20">

    <g transform="translate(-2 -2)">
        <circle fill="#fff" opacity="0.5" cx="1.5" cy="1.5" r="1.5" transform="translate(16 16)" />
        <path fill="#fff"
            d="M4.5,20a4.5,4.5,0,1,1,0-9h11a4.5,4.5,0,0,1,0,9ZM2,15.5A2.5,2.5,0,0,0,4.5,18h11a2.5,2.5,0,0,0,0-5H4.5A2.5,2.5,0,0,0,2,15.5ZM4.5,9a4.5,4.5,0,0,1,0-9h11a4.5,4.5,0,0,1,0,9ZM2,4.5A2.5,2.5,0,0,0,4.5,7h11a2.5,2.5,0,0,0,0-5H4.5A2.5,2.5,0,0,0,2,4.5Zm1,0A1.5,1.5,0,1,1,4.5,6,1.5,1.5,0,0,1,3,4.5Z"
            transform="translate(2 2)" />
    </g>
</svg>