<svg xmlns="http://www.w3.org/2000/svg" width="19.312" height="25" viewBox="0 0 19.312 25">

    <g transform="translate(-681.55 -67.519)">
        <path fill="#fff"
            d="M12.916,5.556q.006.069.007.139a1.494,1.494,0,0,1-.468,1.08L8.344,10.7a1.5,1.5,0,0,1-2.055,0,1.346,1.346,0,0,1,0-1.964l1.879-1.8H1.453A1.422,1.422,0,0,1,0,5.556,1.422,1.422,0,0,1,1.453,4.167H8.168l-1.879-1.8a1.346,1.346,0,0,1,0-1.964,1.5,1.5,0,0,1,2.055,0l4.111,3.93a1.494,1.494,0,0,1,.468,1.08Q12.923,5.487,12.916,5.556Z"
            transform="translate(682.196 74.463)" />
        <g opacity="0.5" transform="translate(681.55 67.519)">
            <path fill="#fff"
                d="M20.991,6.944V4.167a1.413,1.413,0,0,0-1.436-1.389s-11.343.064-13.355,0S3.821,0,6.2,0H19.555a4.239,4.239,0,0,1,4.308,4.167V6.944a1.437,1.437,0,0,1-2.872,0Z"
                transform="translate(-4.55)" />
            <path fill="#fff"
                d="M6.376,5.556h13.1a1.413,1.413,0,0,0,1.436-1.389V1.389a1.437,1.437,0,0,1,2.872,0V4.167a4.239,4.239,0,0,1-4.308,4.167H6.376C4.2,8.319,4.158,5.657,6.376,5.556Z"
                transform="translate(-4.472 16.667)" />
        </g>
    </g>
</svg>