<svg xmlns="http://www.w3.org/2000/svg" width="13" height="13" viewBox="0 0 13 13">

    <g transform="translate(-1.545 -1.545)">
        <path fill="#fff" opacity="0.5"
            d="M.9.069,2.646,1.815a.235.235,0,0,1,0,.333l-.5.5a.235.235,0,0,1-.333,0L.069.9a.235.235,0,0,1,0-.333l.5-.5A.235.235,0,0,1,.9.069Z"
            transform="translate(11.83 1.545)" />
        <path fill="#fff"
            d="M11.05,13H1.95A2.069,2.069,0,0,1,0,10.833V2.166A2.069,2.069,0,0,1,1.95,0H7.962a.69.69,0,0,1,.651.722.69.69,0,0,1-.651.723H1.95a.69.69,0,0,0-.651.722v8.667a.69.69,0,0,0,.651.723h9.1a.69.69,0,0,0,.65-.723V5.674a.654.654,0,1,1,1.3,0v5.159A2.069,2.069,0,0,1,11.05,13ZM4.264,8.556A.344.344,0,0,1,3.9,8.182l.163-1.689a.337.337,0,0,1,.105-.211L9.405,1.36a.381.381,0,0,1,.516,0L11.554,2.9a.328.328,0,0,1,0,.484L6.319,8.3a.376.376,0,0,1-.225.1l-1.8.154Zm5.4-5.775a.125.125,0,0,0-.086.034l-4.3,4.041a.114.114,0,0,0-.035.071l-.026.266a.117.117,0,0,0,.111.124H5.35l.284-.024a.123.123,0,0,0,.075-.033l4.3-4.041a.111.111,0,0,0,0-.162l-.258-.242A.123.123,0,0,0,9.663,2.781Z"
            transform="translate(1.545 1.545)" />
    </g>
</svg>