<svg xmlns="http://www.w3.org/2000/svg" width="13" height="11" viewBox="0 0 13 11">
    <g transform="translate(-2 -6)">
        <rect fill="#fff" opacity="0.5" width="3" height="2" rx="0.6" transform="translate(7 15)" />
        <path fill="#fff"
            d="M11.05,11H8.84a.4.4,0,0,1-.39-.413v-.55a.4.4,0,0,1,.39-.412h2.21c-.006-.01-.978-1.273-2.974-3.86l-.267.255a1.872,1.872,0,0,1-2.613,0l-.27-.259L1.95,9.625H4.16a.4.4,0,0,1,.39.413v.55A.4.4,0,0,1,4.16,11H1.95A2.011,2.011,0,0,1,0,8.937V2.062A2.011,2.011,0,0,1,1.95,0h9.1A2.011,2.011,0,0,1,13,2.062V8.937A2.011,2.011,0,0,1,11.05,11ZM1.43,2.472a.129.129,0,0,0-.1.046A.144.144,0,0,0,1.3,2.61V7.893a.134.134,0,0,0,.13.137.126.126,0,0,0,.1-.051L3.959,4.84,1.517,2.508a.125.125,0,0,0-.087-.036Zm10.14,0a.126.126,0,0,0-.087.035l-2.44,2.33L11.47,7.979a.128.128,0,0,0,.1.051A.125.125,0,0,0,11.652,8a.141.141,0,0,0,.048-.106V2.614A.134.134,0,0,0,11.57,2.477Zm-8.961-1.1a.134.134,0,0,0-.13.137.141.141,0,0,0,.043.1L6.067,5a.624.624,0,0,0,.871,0l3.545-3.385a.139.139,0,0,0,.043-.095.141.141,0,0,0-.033-.1.127.127,0,0,0-.1-.046Z"
            transform="translate(2 6)" />
    </g>
</svg>