<svg xmlns="http://www.w3.org/2000/svg" width="14.16" height="13.702" viewBox="0 0 14.16 13.702">
    <g transform="translate(0 0)">
        <path fill="#fff" opacity="0.5"
            d="M22.58,17.989a.746.746,0,1,0-1.489,0v1.623l-3-3.006a.744.744,0,1,0-1.052,1.053l2.99,2.989H18.409a.746.746,0,1,0,0,1.488h3.376a.771.771,0,0,0,.8-.744l0-.03a.413.413,0,0,0,0-.043V17.989Z"
            transform="translate(-8.42 -8.434)" />
        <path fill="#fff"
            d="M4.494,16.605l-3,3.006V17.989A.767.767,0,0,0,.745,17.2.764.764,0,0,0,0,17.989v3.33c0,.014,0,.029,0,.043s0,.019,0,.03a.77.77,0,0,0,.795.744H4.172a.746.746,0,1,0,0-1.488H2.557l2.99-2.989a.745.745,0,0,0-1.054-1.054Z"
            transform="translate(0 -8.434)" />
        <path fill="#fff"
            d="M18.086,5.989l3-3V4.608a.746.746,0,1,0,1.489,0V1.277a.369.369,0,0,0,0-.042l0-.031a.771.771,0,0,0-.795-.744H18.409a.769.769,0,0,0-.794.744.772.772,0,0,0,.794.745h1.615l-2.99,2.989a.744.744,0,0,0,1.052,1.052Z"
            transform="translate(-8.42 -0.459)" />
        <path fill="#fff" opacity="0.5"
            d="M2.557,1.948H4.172A.772.772,0,0,0,4.965,1.2.769.769,0,0,0,4.172.459H.8A.77.77,0,0,0,0,1.2c0,.01,0,.02,0,.031s0,.027,0,.042V4.608a.764.764,0,0,0,.744.783.767.767,0,0,0,.745-.783V2.985l3,3A.744.744,0,0,0,5.547,4.938Z"
            transform="translate(0 -0.459)" />
    </g>
</svg>