<svg width="55" height="52" viewBox="0 0 55 52" fill="none" xmlns="http://www.w3.org/2000/svg">
<path d="M54.0569 35.8954C54.0791 35.5147 54.0232 35.1334 53.8927 34.7749C53.7623 34.4165 53.56 34.0885 53.2982 33.8111C53.0364 33.5337 52.7208 33.3126 52.3705 33.1616C52.0203 33.0105 51.6429 32.9326 51.2615 32.9326C50.88 32.9326 50.5026 33.0105 50.1524 33.1616C49.8022 33.3126 49.4865 33.5337 49.2247 33.8111C48.963 34.0885 48.7606 34.4165 48.6302 34.7749C48.4997 35.1334 48.4438 35.5147 48.466 35.8954V41.9877L37.1865 30.7019C36.6625 30.1779 35.9519 29.8835 35.2109 29.8835C34.4699 29.8835 33.7593 30.1779 33.2353 30.7019C32.7113 31.2258 32.417 31.9364 32.417 32.6774C32.417 33.4184 32.7113 34.1291 33.2353 34.653L44.4612 45.8758H38.3973C38.0147 45.8501 37.6308 45.9032 37.2695 46.032C36.9082 46.1608 36.5772 46.3624 36.297 46.6243C36.0169 46.8863 35.7935 47.203 35.6408 47.5548C35.4881 47.9067 35.4093 48.2861 35.4093 48.6697C35.4093 49.0532 35.4881 49.4327 35.6408 49.7845C35.7935 50.1364 36.0169 50.4531 36.297 50.715C36.5772 50.977 36.9082 51.1786 37.2695 51.3074C37.6308 51.4361 38.0147 51.4893 38.3973 51.4636H51.0707C51.8369 51.4882 52.5817 51.2079 53.1415 50.6841C53.7014 50.1604 54.0306 49.4359 54.0569 48.6697L54.0411 48.5562C54.0493 48.5018 54.0546 48.4471 54.0569 48.3922V35.8954Z" fill="black"/>
<path d="M17.7689 30.7013L6.49246 41.9872V35.8949C6.50941 35.134 6.22434 34.3973 5.6996 33.8459C5.17485 33.2946 4.45313 32.9735 3.69228 32.9528C2.9317 32.9726 2.21012 33.2937 1.6862 33.8454C1.16228 34.3971 0.878915 35.1343 0.898404 35.8949V48.3948C0.898404 48.4484 0.898404 48.5052 0.917324 48.5588C0.936244 48.6124 0.917324 48.6313 0.917324 48.6723C0.942834 49.4382 1.27134 50.1627 1.83068 50.6866C2.39002 51.2104 3.13444 51.4908 3.9004 51.4662H16.5769C16.9596 51.4919 17.3435 51.4387 17.7047 51.31C18.066 51.1812 18.397 50.9796 18.6772 50.7177C18.9573 50.4557 19.1807 50.139 19.3334 49.7872C19.4861 49.4353 19.5649 49.0559 19.5649 48.6723C19.5649 48.2888 19.4861 47.9093 19.3334 47.5575C19.1807 47.2056 18.9573 46.8889 18.6772 46.627C18.397 46.365 18.066 46.1634 17.7047 46.0346C17.3435 45.9059 16.9596 45.8527 16.5769 45.8784H10.4972L21.7105 34.6525C22.1772 34.1189 22.4238 33.428 22.4005 32.7195C22.3772 32.011 22.0858 31.3377 21.5851 30.8359C21.0845 30.334 20.412 30.041 19.7035 30.016C18.9951 29.991 18.3036 30.236 17.7689 30.7013V30.7013Z" fill="black"/>
<path d="M37.1826 20.7828L48.4622 9.50327V15.6019C48.44 15.9826 48.4959 16.3639 48.6264 16.7224C48.7568 17.0808 48.9592 17.4088 49.2209 17.6862C49.4827 17.9636 49.7984 18.1847 50.1486 18.3357C50.4988 18.4868 50.8762 18.5647 51.2577 18.5647C51.6391 18.5647 52.0165 18.4868 52.3667 18.3357C52.717 18.1847 53.0326 17.9636 53.2944 17.6862C53.5561 17.4088 53.7585 17.0808 53.8889 16.7224C54.0194 16.3639 54.0753 15.9826 54.0531 15.6019V3.0925C54.051 3.03863 54.0457 2.98493 54.0373 2.93168L54.0531 2.815C54.0268 2.04936 53.698 1.32538 53.1389 0.801686C52.5797 0.277997 51.8358 -0.00268918 51.07 0.0211303H38.3967C38.0173 0.00850187 37.6392 0.0707712 37.2839 0.204378C36.9286 0.337985 36.6031 0.540309 36.3261 0.799783C36.049 1.05926 35.8259 1.37079 35.6693 1.71658C35.5127 2.06236 35.4258 2.43562 35.4136 2.815C35.44 3.58092 35.7686 4.30522 36.3277 4.82941C36.8867 5.3536 37.6307 5.635 38.3967 5.61203H44.4606L33.2347 16.8348C32.9754 17.0941 32.7698 17.4018 32.6295 17.7405C32.4892 18.0792 32.417 18.4422 32.417 18.8088C32.417 19.1754 32.4892 19.5384 32.6295 19.8771C32.7698 20.2158 32.9754 20.5236 33.2347 20.7828C33.7582 21.3064 34.4683 21.6005 35.2087 21.6005C35.5753 21.6005 35.9383 21.5283 36.277 21.388C36.6157 21.2477 36.9234 21.0421 37.1826 20.7828V20.7828Z" fill="black"/>
<path d="M10.4971 5.61421H16.561C17.3265 5.63633 18.0697 5.35455 18.628 4.83045C19.1864 4.30635 19.5146 3.58254 19.541 2.81719C19.5163 2.05154 19.1884 1.32706 18.6296 0.803112C18.0708 0.279164 17.3267 -0.00133678 16.561 0.0233137H3.88771C3.50792 0.0102574 3.12928 0.0721886 2.77344 0.205566C2.41761 0.338944 2.09155 0.541152 1.81392 0.800629C1.53628 1.06011 1.31252 1.37176 1.15541 1.71778C0.998308 2.06379 0.910947 2.43738 0.898324 2.81719C0.898324 2.85503 0.898324 2.89287 0.898324 2.93386C0.898324 2.97485 0.898324 3.03792 0.898324 3.09468V15.604C0.879686 16.3641 1.16343 17.1005 1.68726 17.6515C2.21109 18.2025 2.93218 18.5231 3.6922 18.543C4.45222 18.5215 5.17297 18.2006 5.69745 17.6501C6.22193 17.0996 6.50765 16.3642 6.49238 15.604V9.50861L17.7688 20.785C18.0213 21.0713 18.3297 21.3028 18.6752 21.4653C19.0206 21.6278 19.3957 21.7177 19.7772 21.7296C20.1588 21.7415 20.5387 21.6751 20.8936 21.5344C21.2485 21.3938 21.5708 21.1819 21.8406 20.9119C22.1104 20.6418 22.322 20.3194 22.4624 19.9644C22.6028 19.6094 22.6689 19.2294 22.6567 18.8479C22.6445 18.4663 22.5542 18.0913 22.3915 17.746C22.2288 17.4007 21.997 17.0924 21.7105 16.8402L10.4971 5.61421Z" fill="black"/>
</svg>
