<svg xmlns="http://www.w3.org/2000/svg" width="6.983" height="10.581" viewBox="0 0 6.983 10.581">

    <path fill="#fff"
        d="M3.645-2.2H4.723V-3.381c1.642-.138,2.783-.99,2.783-2.332,0-1.642-1.442-2.044-2.783-2.319v-2.332A2.275,2.275,0,0,1,6.579-9.035l.965-.99a3.387,3.387,0,0,0-2.821-1.58v-1.178H3.645v1.178C1.877-11.443.862-10.44.862-9.148c0,1.6,1.442,1.993,2.783,2.257V-4.61A2.543,2.543,0,0,1,1.577-6.1L.561-5.149a3.533,3.533,0,0,0,3.084,1.78Zm0-6.055c-.677-.176-1.2-.414-1.2-1s.414-.978,1.2-1.091ZM4.723-4.61V-6.653c.677.176,1.216.426,1.216,1.028S5.488-4.7,4.723-4.61Z"
        transform="translate(-0.561 12.784)" />
</svg>