<svg xmlns="http://www.w3.org/2000/svg" width="22.833" height="25.37" viewBox="0 0 22.833 25.37">

    <path fill="#fff" opacity="0.5"
        d="M0,16.49V11.416a1.268,1.268,0,0,1,2.537,0V16.49A1.268,1.268,0,1,1,0,16.49ZM12.685,8.88V3.805a1.268,1.268,0,1,0-2.537,0V5.073a1.268,1.268,0,1,1-2.537,0V3.805a3.805,3.805,0,0,1,7.61,0V8.88a1.268,1.268,0,0,1-2.537,0Z"
        transform="translate(0 7.611)" />
    <path fill="#fff"
        d="M20.3,24.1V11.416a8.88,8.88,0,0,0-17.759,0v3.805a1.268,1.268,0,0,1-2.537,0V11.416a11.416,11.416,0,0,1,22.833,0V24.1a1.268,1.268,0,0,1-2.537,0Zm-3.806,0V21.565H11.416a3.8,3.8,0,0,1-3.805-3.805V16.49a1.268,1.268,0,0,1,2.537,0v1.27a1.268,1.268,0,0,0,1.268,1.268h6.343A1.268,1.268,0,0,1,19.028,20.3V24.1a1.269,1.269,0,0,1-2.538,0ZM11.416,25.37a7.611,7.611,0,0,1-7.611-7.61V11.416a7.611,7.611,0,0,1,15.223,0V16.49a1.269,1.269,0,1,1-2.538,0V11.416a5.073,5.073,0,0,0-10.147,0v6.343a5.073,5.073,0,0,0,5.073,5.073h2.537a1.268,1.268,0,1,1,0,2.537Z"
        transform="translate(0 0)" />
</svg>