<svg xmlns="http://www.w3.org/2000/svg" width="23.416" height="23.417" viewBox="0 0 23.416 23.417">

    <path d="M243.363,25.559a.778.778,0,0,0,.552-.228l.91-.91a.78.78,0,1,0-1.1-1.1l-.91.91a.78.78,0,0,0,.552,1.332Z"
        transform="translate(-223.457 -21.268)" />
    <path d="M208.009,1.816a.78.78,0,0,0,.778.737h.044a.78.78,0,0,0,.736-.822l-.055-.993a.78.78,0,0,0-1.558.087Z"
        transform="translate(-191.557 0)" />
    <path d="M266.435,68.618l-.993-.055a.78.78,0,0,0-.087,1.558l.993.055h.044a.78.78,0,0,0,.043-1.559Z"
        transform="translate(-243.755 -63.156)" />
    <path
        d="M4.063,135.1l9.569-9.569a.712.712,0,0,0,0-1L10.8,121.7a.712.712,0,0,0-1,0l-.826.826-.359-.359a.78.78,0,0,0-1.1,0l-1.829,1.829a.78.78,0,0,0,0,1.1l.359.358-5.81,5.81a.78.78,0,0,0,0,1.1l2.73,2.73a.78.78,0,0,0,1.1,0Z"
        transform="translate(-0.001 -111.91)" />
    <path
        d="M141.218,62.872a1.486,1.486,0,0,0,.363,1.2l2.948,2.948a1.486,1.486,0,0,0,1.2.363l2.684-.537c.383-.077.47-.365.194-.641L142.4,59.994c-.276-.276-.564-.189-.641.194Z"
        transform="translate(-130.066 -55.115)" />
    <path
        d="M170.477,30.966a.78.78,0,0,0,0-1.1l-6.371-6.371a.78.78,0,0,0-1.1,0l-.909.909a.712.712,0,0,0,0,1l6.47,6.47a.712.712,0,0,0,1,0Z"
        transform="translate(-149.124 -21.43)" />
</svg>