<svg xmlns="http://www.w3.org/2000/svg" width="8.405" height="6.316" viewBox="0 0 8.405 6.316">

    <path fill="#fff"
        d="M15293.166-4426.238a.455.455,0,0,1-.067-.638l1.919-2.369c.012-.015.024-.028.036-.041a.1.1,0,0,0,.019-.02.457.457,0,0,1,.644,0l1.262,1.264,2.115-2.611.008-.01-.8-.5h0a.452.452,0,0,1-.2-.284.451.451,0,0,1,.34-.544l1.886-.436.037-.011a.449.449,0,0,1,.4.1.454.454,0,0,1,.147.243.169.169,0,0,1,.006.03l.478,1.91a.456.456,0,0,1-.308.544.449.449,0,0,1-.368-.039l-.016-.008-.838-.525a.471.471,0,0,1-.062.107l-2.412,2.979a.685.685,0,0,1-.053.06.454.454,0,0,1-.642,0l-1.267-1.266-1.62,2a.458.458,0,0,1-.354.168A.452.452,0,0,1,15293.166-4426.238Z"
        transform="translate(-15292.998 4432.454)" />
</svg>