<svg width="25" height="25" viewBox="0 0 25 25" fill="none" xmlns="http://www.w3.org/2000/svg">
<path d="M10.6061 19.9557V17.349C10.6061 16.6859 11.1416 16.1472 11.8051 16.1428H14.2354C14.9021 16.1428 15.4425 16.6828 15.4425 17.349V17.349V19.9638C15.4424 20.5267 15.892 20.9868 16.4552 21H18.0754C19.6906 21 21 19.6916 21 18.0776V18.0776V10.6622C20.9914 10.0272 20.693 9.43095 20.1899 9.04308L14.6486 4.58251C13.6778 3.80583 12.2979 3.80583 11.3271 4.58251L5.81013 9.05117C5.30506 9.43747 5.00622 10.0347 5 10.6703V18.0776C5 19.6916 6.30937 21 7.92456 21H9.54481C10.122 21 10.5899 20.5324 10.5899 19.9557V19.9557" stroke="#1C1C26" stroke-width="1.5" stroke-linecap="round" stroke-linejoin="round"/>
</svg>
