<svg xmlns="http://www.w3.org/2000/svg" width="19.5" height="20.5" viewBox="0 0 19.5 20.5">

    <g transform="translate(-11.136 -11.82)">
        <rect fill="#fff" width="15" height="15" rx="2" transform="translate(11.136 11.82)" />
        <path fill="#fff" opacity="0.5" stroke="rgba(255,255,255,0)" stroke-miterlimit="10.0"
            d="M13,15H2a2,2,0,0,1-2-2V2A2,2,0,0,1,2,0H13a2,2,0,0,1,2,2V13A2,2,0,0,1,13,15ZM3.5,1.5a2,2,0,0,0-2,2v8a2,2,0,0,0,2,2h8a2,2,0,0,0,2-2v-8a2,2,0,0,0-2-2Z"
            transform="translate(15.136 16.82)" />
    </g>
</svg>