<svg width="16" height="20" viewBox="0 0 16 20" fill="none" xmlns="http://www.w3.org/2000/svg">
<rect y="7" width="2" height="6" rx="1" fill="white" fill-opacity="0.5"/>
<path fill-rule="evenodd" clip-rule="evenodd" d="M0 15C0 14.4477 0.447715 14 1 14C1.55228 14 2 14.4477 2 15V17C2 17.5523 2.44772 18 3 18H13C13.5523 18 14 17.5523 14 17V6.82843C14 6.56321 13.8946 6.30886 13.7071 6.12132L9.87868 2.29289C9.69114 2.10536 9.43679 2 9.17157 2H3C2.44772 2 2 2.44772 2 3V5C2 5.55228 1.55228 6 1 6C0.447715 6 0 5.55228 0 5V3C0 1.34315 1.34315 0 3 0H9.17157C9.96722 0 10.7303 0.31607 11.2929 0.87868L15.1213 4.70711C15.6839 5.26972 16 6.03278 16 6.82843V17C16 18.6569 14.6569 20 13 20H3C1.34315 20 0 18.6569 0 17V15Z" fill="white"/>
<path d="M2.56128 15.9589C2.56128 16.5051 2.94319 16.8593 3.52695 16.8593C4.1384 16.8593 4.50251 16.513 4.50251 15.9055V13.9445H3.9049V15.9015C3.9049 16.1885 3.77034 16.3428 3.52101 16.3428C3.29542 16.3428 3.14503 16.1905 3.14107 15.9589H2.56128Z" fill="white"/>
<path d="M4.89431 15.9866C4.91212 16.5229 5.34944 16.8494 6.03609 16.8494C6.74451 16.8494 7.19371 16.4992 7.19371 15.9451C7.19371 15.5097 6.94437 15.2644 6.37249 15.1417L6.0262 15.0685C5.69772 14.9933 5.5592 14.8943 5.5592 14.7182C5.5592 14.5065 5.75708 14.366 6.05192 14.366C6.35073 14.366 6.56246 14.5124 6.58225 14.7538H7.14226C7.13236 14.2374 6.71483 13.895 6.04995 13.895C5.41276 13.895 4.95764 14.2433 4.95764 14.7697C4.95764 15.1872 5.21686 15.4543 5.74323 15.5671L6.11525 15.6483C6.45956 15.7254 6.5961 15.8283 6.5961 16.0143C6.5961 16.2241 6.37843 16.3765 6.05984 16.3765C5.74323 16.3765 5.49785 16.2221 5.47015 15.9866H4.89431Z" fill="white"/>
<path d="M8.84998 13.895C8.00305 13.895 7.47272 14.4629 7.47272 15.3732C7.47272 16.2815 8.00305 16.8494 8.84998 16.8494C9.69494 16.8494 10.2272 16.2815 10.2272 15.3732C10.2272 14.4629 9.69494 13.895 8.84998 13.895ZM8.84998 14.3937C9.31698 14.3937 9.61579 14.7736 9.61579 15.3732C9.61579 15.9708 9.31698 16.3488 8.84998 16.3488C8.381 16.3488 8.0822 15.9708 8.0822 15.3732C8.0822 14.7736 8.38298 14.3937 8.84998 14.3937Z" fill="white"/>
<path d="M11.185 16.7999V14.9299H11.2028L12.5385 16.7999H13.0332V13.9445H12.4613V15.8046H12.4455L11.1118 13.9445H10.6131V16.7999H11.185Z" fill="white"/>
</svg>
