<svg xmlns="http://www.w3.org/2000/svg" width="21" height="21" viewBox="0 0 21 21">

    <g transform="translate(-2.16 -2.16)">
        <path fill="#fff" opacity="0.5" d="M3,6A3,3,0,1,1,6,3,3,3,0,0,1,3,6Z" transform="translate(9.66 17.16)" />
        <path fill="#fff"
            d="M14.7,17.85A3.15,3.15,0,1,1,17.85,21,3.149,3.149,0,0,1,14.7,17.85ZM0,17.85A3.15,3.15,0,1,1,3.15,21,3.149,3.149,0,0,1,0,17.85ZM14.7,10.5a3.15,3.15,0,1,1,3.15,3.15A3.149,3.149,0,0,1,14.7,10.5Zm-7.35,0a3.15,3.15,0,1,1,3.15,3.15A3.149,3.149,0,0,1,7.35,10.5ZM0,10.5a3.15,3.15,0,1,1,3.15,3.15A3.149,3.149,0,0,1,0,10.5ZM14.7,3.15A3.15,3.15,0,1,1,17.85,6.3,3.149,3.149,0,0,1,14.7,3.15Zm-7.35,0A3.15,3.15,0,1,1,10.5,6.3,3.149,3.149,0,0,1,7.35,3.15ZM0,3.15A3.15,3.15,0,1,1,3.15,6.3,3.149,3.149,0,0,1,0,3.15Z"
            transform="translate(2.16 2.16)" />
    </g>
</svg>