<svg width="24" height="21" viewBox="0 0 24 21" fill="none" xmlns="http://www.w3.org/2000/svg">
<path d="M1 4.3351L2.87928 1C2.87928 1 21.1025 5.8975 21 6.00003C20 7.00006 17.5 9.00003 17.5 9.00003M1 4.3351L17.5 9.00003M1 4.3351V6.70819L17.5 11.5V9.00003" stroke="white"/>
<path d="M24 11L10.5 20.5L10.8063 18.6844L24 8.5V11Z" fill="white"/>
<path fill-rule="evenodd" clip-rule="evenodd" d="M20.8197 5.7824L7.05115 15.1219L6.66602 17.0476L10.4999 20.5001L10.8062 18.7807L23.8045 9.44118C23.8045 9.44118 24.4785 8.38207 23.3231 6.84152C22.1677 5.30097 20.8197 5.7824 20.8197 5.7824ZM21.1027 9.21994C21.8439 9.51461 22.6518 9.23272 22.9072 8.59033C23.1626 7.94794 22.7687 7.18831 22.0275 6.89365C21.2863 6.59898 20.4784 6.88087 20.223 7.52326C19.9676 8.16564 20.3615 8.92528 21.1027 9.21994Z" fill="white"/>
</svg>
