<svg fill="none" height="43" viewBox="0 0 208 43" width="208" xmlns="http://www.w3.org/2000/svg"><path d="m42.6289 36.4517v-5.7827l-9.9067-9.9998h-5.967z" fill="#fff"/><path d="m-.0001297 6.17653v5.78267l9.9066997 9.9998h5.96693z" fill="#fff"/><path d="m5.2041-.0001297h5.7827l9.9998 9.9066997 9.9095-9.9066997h6.0422l-15.9517 15.8736297z" fill="#fff"/><path d="m6.17745 42.1422h5.78265l9.9989-9.9067 9.9095 9.9067h6.0431l-15.9526-15.8736z" fill="#fff"/><path d="m21.395 24.2958c1.4888 0 2.6957-1.2069 2.6957-2.6957 0-1.4889-1.2069-2.6958-2.6957-2.6958s-2.6958 1.2069-2.6958 2.6958c0 1.4888 1.207 2.6957 2.6958 2.6957z" fill="#e6007a"/><path d="m205.039 24.9858c.444-.0218.886.0617 1.292.2436.406.1818.762.457 1.041.8029.278.3541.471.767.564 1.207s.085.8955-.025 1.3318c-.224 1.0096-.795 1.9083-1.615 2.5387-.776.6363-1.749.985-2.752.9873-.435.0252-.869-.0508-1.269-.2221-.399-.1714-.754-.4333-1.035-.7652-.271-.357-.454-.7735-.532-1.215s-.05-.8953.083-1.3237c.201-.9968.74-1.8936 1.526-2.5388.749-.6725 1.72-1.0454 2.726-1.0474z" fill="#e6007a"/><g fill="#fff"><path d="m194.004 23.0865 3.231 5.7206c.133.1709.215.3748.24.5895.013.1989-.009.3986-.066.5896-.137.5566-.461 1.0496-.917 1.3972-.42.3785-.962.5951-1.527.6112-.261.0005-.517-.0672-.743-.1965-.232-.1311-.426-.3187-.564-.5454l-2.839-4.8894-4.803 4.8894c-.228.2676-.521.4709-.852.5896-.259.0936-.532.1453-.808.1532-.237.0031-.472-.0507-.685-.1571-.213-.1063-.397-.262-.537-.454-.156-.1932-.265-.42-.318-.6626-.053-.2425-.049-.494.012-.7347.055-.1917.121-.38.197-.5641.114-.2305.269-.4378.459-.6112l5.589-5.6764-2.926-5.1527c-.146-.3757-.176-.7861-.088-1.1791.126-.5676.451-1.0711.917-1.4189.426-.3669.966-.5752 1.528-.5895.253.0051.501.0726.721.1965.242.1257.445.314.59.5453l2.444 4.3253 4.278-4.3253c.231-.2319.506-.417.807-.5453.254-.1188.528-.1856.808-.1965.25-.0044.497.0507.721.1608.224.11.418.2718.567.472.162.1943.276.424.333.6704.057.2465.055.5028-.006.7484-.121.4362-.363.8294-.697 1.1349z"/><path d="m173.264 31.9934c-1.101.0263-2.192-.2056-3.187-.677-.873-.4255-1.623-1.0638-2.184-1.8561-.568-.8227-.941-1.7638-1.091-2.7521-.173-1.1038-.129-2.2306.13-3.3173.255-1.2039.697-2.3603 1.31-3.4273.587-1.0326 1.339-1.962 2.227-2.7512.884-.7785 1.896-1.3991 2.991-1.8345 1.145-.456 2.369-.6859 3.602-.677 1.042-.0312 2.08.1393 3.057.5021.739.2828 1.404.7308 1.943 1.3098.469.5154.786 1.1502.917 1.8345.131.6859.124 1.3911-.022 2.0742-.16.705-.44 1.3771-.829 1.9868-.412.6606-.928 1.2505-1.528 1.747-.645.5286-1.377.9421-2.163 1.2224-.86.3111-1.77.4665-2.685.4588-.372-.0014-.744-.0234-1.113-.0658-.367-.0373-.728-.1256-1.07-.2623-.307-.1194-.567-.3335-.743-.6112-.186-.3562-.232-.7688-.131-1.1575.137-.5294.425-1.0075.83-1.3756.199-.202.437-.3621.7-.4708.262-.1086.543-.1637.827-.162.287-.0072.571.0527.83.1749.304.1246.632.1842.961.1749.264.0092.528-.0342.775-.1278.248-.0937.474-.2356.666-.4176.32-.2659.55-.6242.658-1.0258.042-.2341.024-.4749-.052-.7002-.077-.2252-.208-.4275-.384-.588-.64-.4734-1.436-.6843-2.226-.5895-.64-.0096-1.274.1091-1.867.3491s-1.131.5964-1.583 1.0481c-.949.9078-1.604 2.0789-1.881 3.3624-.314 1.1127-.179 2.3041.376 3.3182.28.4512.678.8165 1.152 1.0554s1.005.3423 1.534.2986c.675.013 1.347-.0903 1.986-.3056.67-.266 1.294-.6356 1.849-1.0954.421-.3784.962-.595 1.528-.6112.231-.0057.461.0403.673.1347.211.0943.399.2346.549.4107.16.1869.271.41.324.6498s.047.489-.018.7258c-.067.2538-.17.4967-.306.7212-.156.2633-.346.5056-.564.7212-.911.9009-2.016 1.5806-3.232 1.9868-1.139.3838-2.333.5825-3.536.5886z"/><path d="m162.174 26.6669c-.059.2326-.117.473-.175.7212-.045.2004-.103.3975-.175.5895.266-.2295.569-.4137.895-.5453.258-.0986.531-.1505.808-.1533.221-.0098.442.0302.646.1171s.386.2185.533.385c.146.1767.246.3866.292.6113s.035.4572-.03.6769c-.144.4919-.381.9515-.698 1.354-.496.5533-1.117.9801-1.812 1.2449-.552.2041-1.136.3141-1.725.3253-.777.0489-1.545-.1849-2.163-.6581-.268-.2521-.482-.5565-.629-.8945-.146-.3379-.222-.7023-.222-1.0707-.765.7706-1.65 1.412-2.62 1.8993-.963.4811-2.026.7279-3.103.7203-.952.0345-1.897-.1681-2.751-.5896-.692-.3576-1.261-.9122-1.637-1.5937-.377-.7159-.593-1.5052-.633-2.3131-.052-.9393.036-1.8812.262-2.7945.259-1.2342.692-2.4251 1.288-3.5363.612-1.1727 1.375-2.2594 2.271-3.2318.875-.9509 1.91-1.7416 3.057-2.3365 1.125-.5907 2.376-.898 3.646-.8952.564-.0341 1.126.0861 1.626.3477s.92.6547 1.213 1.137l2.533-11.87749c.114-.59054.45-1.1146.94-1.46306.437-.3202.963-.49577 1.505-.50211.241-.00719.48.03349.705.11968s.43.21619.605.38243c.179.19324.301.43147.355.68918.054.25772.037.52522-.05.77388zm-5.502-8.0346c-.692-.0021-1.369.2032-1.944.5895-.612.4076-1.157.9086-1.615 1.4847-.48.5954-.883 1.2483-1.202 1.9436-.302.6394-.523 1.3141-.658 2.0084-.085.4168-.129.8411-.131 1.2665-.003.3746.073.7456.225 1.0879.14.3136.369.5793.658.7645.358.2057.768.3036 1.18.2821.66.0032 1.309-.1702 1.88-.5022.594-.3446 1.126-.7875 1.572-1.3098.469-.5434.865-1.1455 1.179-1.7912.312-.6317.546-1.2988.698-1.9868.237-.8828.214-1.8153-.066-2.6854-.121-.3655-.363-.6788-.686-.8882s-.708-.3024-1.091-.2636z"/><path d="m142.394 26.6229c-.058.262-.124.5312-.197.8077-.047.2021-.113.3994-.196.5895l.218-.1749c.432-.354.97-.5526 1.528-.5642.222-.0098.443.0302.647.1171s.386.2185.532.3851c.146.1766.247.3866.292.6112.046.2247.036.4572-.03.6769-.136.5038-.391.9678-.742 1.354-.511.5052-1.111.9122-1.769 1.2007-.544.2381-1.13.366-1.724.3762-1.66 0-2.621-.7422-2.882-2.2266-.744.6608-1.584 1.2054-2.49 1.6154-.906.4082-1.889.6166-2.882.6112-.944.036-1.882-.1668-2.727-.5896-.685-.3659-1.253-.9185-1.637-1.5938-.392-.7115-.617-1.5028-.658-2.314-.052-.9393.036-1.8812.262-2.7945.257-1.2315.683-2.4216 1.267-3.5363.601-1.1789 1.365-2.2669 2.271-3.2317.885-.9483 1.926-1.7385 3.078-2.3366 1.139-.5939 2.405-.9012 3.69-.8951 1.005-.0359 1.987.3071 2.751.9609.246-.3079.559-.5547.917-.7212.327-.1549.684-.2367 1.046-.2397.231-.0057.46.036.674.1223.215.0864.409.2156.571.3798.173.2048.29.4512.34.7149.049.2637.029.5358-.058.7895zm-4.983-7.9924c-.693-.002-1.37.2033-1.944.5896-.612.408-1.157.9092-1.614 1.4856-.48.5955-.883 1.2484-1.201 1.9436-.302.6394-.523 1.3141-.658 2.0084-.086.4168-.129.8411-.131 1.2665-.007.3754.068.7477.218 1.0917.14.3135.369.5792.658.7644.343.2022.738.3002 1.135.2821.649-.0022 1.288-.1674 1.856-.4805.602-.3244 1.142-.7533 1.594-1.2665.477-.5416.881-1.1439 1.201-1.7912.328-.6501.57-1.3401.721-2.0526.237-.8828.214-1.8153-.066-2.6855-.12-.365-.36-.6783-.682-.8885-.321-.2102-.705-.3047-1.087-.268z"/><path d="m117.503 28.2382c-.291-.5626-.539-1.1462-.743-1.7461-.232-.659-.277-1.3695-.13-2.0526.148-.5867.495-1.1038.982-1.4631.589-.4446 1.209-.8459 1.856-1.2007.57-.3159 1.079-.7296 1.505-1.2224.335-.3606.582-.7942.721-1.2665.087-.4388-.248-.6582-1.004-.6582-.599.0033-1.192.1217-1.746.3488-.614.2536-1.171.6259-1.64 1.0955-.551.5497-1.022 1.1746-1.398 1.8561-.452.8249-.769 1.7169-.94 2.6421l-1.135 5.4536c-.052.3019-.166.5897-.336.8452-.169.2555-.389.4733-.646.6395-.46.3052-.999.472-1.551.4805-.229.0063-.457-.0329-.67-.1154-.214-.0825-.409-.2066-.575-.3651-.174-.2003-.292-.4433-.342-.7042-.049-.2609-.029-.5302.06-.7805l4.672-22.00707c.154-.87942.42-1.73546.792-2.54719.264-.57914.643-1.09886 1.113-1.52794.42-.36299.923-.61797 1.463-.74282.631-.13921 1.276-.20515 1.921-.19651h.393c.237-.01782.475.02975.686.13753.212.10777.39.2716.515.47364.247.40525.333.88857.24 1.35399-.142.50933-.422.96984-.808 1.33143-.188.19974-.414.35893-.666.46776-.251.10883-.523.165-.797.16504h-.393c-.087 0-.152.08745-.196.26234s-.095.39428-.154.65818l-2.007 9.30022c.826-.7248 1.752-1.3265 2.75-1.7865.831-.4068 1.739-.6312 2.664-.6582.577-.0274 1.153.063 1.694.2658.54.2027 1.034.5135 1.45.9133.391.4028.667.9035.798 1.4495.13.546.111 1.1172-.055 1.6534-.295 1.2837-.936 2.4618-1.855 3.4057-.925 1.0131-2.067 1.8042-3.341 2.314.087.1454.218.4002.393.7644s.357.7353.546 1.1133c.168.3437.365.6724.589.9826.204.2764.392.4146.564.4146.25-.1855.513-.3533.786-.5021.28-.1568.596-.2394.917-.2397.225-.0084.448.0321.656.1188.207.0867.393.2175.545.3833.154.1811.257.3996.299.6334s.021.4746-.059.698c-.091.4712-.32.9047-.659 1.2449-.336.3537-.718.6619-1.135.9168-.383.2352-.794.4246-1.222.5641-.323.1153-.661.1815-1.004.1966-.542.0153-1.081-.0965-1.572-.3263-.432-.215-.824-.5032-1.158-.8519-.345-.3632-.645-.7663-.895-1.2007-.259-.4557-.505-.9165-.738-1.3822z"/><path d="m109.381 6.84199c-.087 0-.153.08745-.197.26234l-.153.61117-4.017 18.9512c-.058.2325-.116.4729-.174.7212-.045.2004-.103.3974-.175.5895.238-.2553.529-.4563.851-.5895.259-.0986.532-.1505.808-.1533.228-.007.454.0341.665.1206s.401.2165.558.3815c.16.1772.269.3947.315.6293.047.2346.028.4773-.053.7021-.094.4766-.322.9162-.658 1.2666-.478.594-1.103 1.0529-1.812 1.3314-.581.2105-1.193.3215-1.811.3282-.478.0487-.961-.0238-1.404-.2108-.442-.187-.831-.4825-1.129-.8593-.494-.7133-.581-1.8852-.262-3.5156l4.192-19.5577c.149-.87539.413-1.72718.786-2.53309.268-.56999.647-1.08129 1.113-1.50443.427-.36612.937-.62129 1.485-.74282.638-.1384 1.29-.20433 1.944-.19651h.348c.236-.01105.471.03949.682.14665.21.10716.389.26724.519.46452.136.19493.227.41693.269.65069.041.23375.031.4737-.029.70331-.125.52839-.415 1.00293-.829 1.35398-.39.4052-.923.6415-1.485.6582z"/><path d="m80.9549 23.3919c.2624-1.1948.7356-2.3334 1.3972-3.3624 1.328-2.0853 3.2745-3.7034 5.5674-4.628 1.1154-.4586 2.3096-.6956 3.5156-.6977 1.1306-.0202 2.2508.2184 3.275.6977.9215.435 1.729 1.0789 2.3582 1.8806.6229.8106 1.0557 1.7508 1.2665 2.7512.232 1.1105.2165 2.2585-.0451 3.3624-.2596 1.1889-.7326 2.3208-1.3963 3.3408-.6644 1.0267-1.4815 1.9462-2.4231 2.7268-.9418.7828-2.0034 1.4089-3.1442 1.8542-1.1333.4482-2.3412.6779-3.5599.677-1.1138.0167-2.2174-.2145-3.2308-.677-.923-.4215-1.7317-1.0579-2.3582-1.8561-.6196-.8035-1.0523-1.735-1.2665-2.7268-.2326-1.1031-.2178-2.2441.0432-3.3408zm13.2747 0c.145-.6014.1601-1.2268.0442-1.8344-.1044-.5549-.3362-1.0779-.677-1.528-.3354-.437-.7694-.7885-1.2665-1.0258-.5385-.2556-1.1285-.3843-1.7245-.3761-.6453.0019-1.2841.1296-1.8805.3761-.6119.2482-1.1792.5948-1.6794 1.0258-.5119.4396-.9536.9549-1.3098 1.528-.3564.564-.6148 1.1842-.7644 1.8344-.1596.5628-.1875 1.1547-.0815 1.73s.343 1.1184.6927 1.5873c.3565.4501.8159.808 1.3394 1.0436.5236.2356 1.0962.3421 1.6694.3104.6454-.0019 1.2842-.1297 1.8806-.3761.6089-.2459 1.176-.5847 1.6812-1.0042.511-.4239.9529-.9248 1.3098-1.4847.3586-.5529.618-1.1642.7663-1.8063z"/><path d="m65.2353 24.6585h-1.5721c-.2721.0256-.5463-.0169-.798-.1235-.2516-.1067-.4727-.2743-.6435-.4877-.1448-.2073-.2398-.4452-.2776-.6952-.0379-.25-.0175-.5054.0595-.7462.1102-.5351.3941-1.0187.8077-1.3757.4552-.4234 1.0588-.6507 1.6802-.6328h1.5731l1.6145-7.4234c.1129-.6191.4662-1.1683.9825-1.5279.4646-.3347 1.0213-.5176 1.5938-.5238.4747-.0081.9351.1632 1.2891.4796.1917.2079.3234.4639.381.7408.0576.2768.039.5642-.0538.8313l-1.6154 7.4281h1.5722c.7482.0087 1.4884-.1557 2.1626-.4804.6433-.3122 1.2327-.7248 1.7461-1.2224.5105-.4962.9381-1.0711 1.2665-1.7028.3275-.6198.57-1.2808.7212-1.9652.1154-.6197.1521-1.2516.1091-1.8805-.0349-.5793-.1912-1.1447-.4589-1.6596-.2631-.4956-.6556-.9106-1.1358-1.2007-.5716-.3258-1.2231-.4848-1.8806-.4589h-8.3392c-.5791.0027-1.1566.0613-1.7245.1749-.5954.1159-1.1696.322-1.7028.6112-.5292.2836-1.0026.6608-1.3973 1.1133-.4081.4824-.6861 1.0611-.8077 1.6812-.1518.6174-.0742 1.2689.2182 1.8335.2685.5168.575 1.0131.9168 1.4847.2054.209.3535.4675.4299.7505.0765.2829.0786.5808.0063.8649-.1287.5442-.427 1.0335-.8518 1.3972-.4189.3946-.9732.6133-1.5487.6112-.4932.0006-.9715-.1691-1.354-.4805-.8218-.7666-1.4378-1.7276-1.7912-2.7945-.3827-1.1852-.443-2.4508-.1749-3.667.2411-1.1755.7327-2.2851 1.4415-3.2534.6913-.94151 1.5407-1.75595 2.5105-2.40707.9854-.65977 2.0683-1.16076 3.2091-1.48469 1.1351-.33053 2.311-.49956 3.4931-.50211h8.0779c1.3089-.04688 2.6083.23843 3.7771.82932.9499.50233 1.7486 1.24885 2.314 2.16263.5457.90966.8745 1.93282.961 2.99002.1008 1.1244.0346 2.2575-.1966 3.3625-.2748 1.1978-.7156 2.3514-1.3098 3.4272-.6034 1.1105-1.3769 2.1197-2.2923 2.991-.9383.8874-2.0243 1.604-3.2092 2.1175-1.2676.5477-2.6361.8229-4.0168.8077h-1.5703l-.4363 2.0536c-.1677.7076-.4094 1.3956-.7212 2.0526-.2939.6237-.6927 1.1924-1.1791 1.6812-.4992.4926-1.0932.8787-1.746 1.1349-.7737.2924-1.5963.4332-2.4231.4147-.6729-.0135-1.341-.1163-1.9868-.3056-.3771-.1093-.7263-.2985-1.0238-.5547-.2976-.2561-.5365-.5733-.7007-.93-.2523-.3867-.3462-.8557-.2623-1.3098.1432-.576.4827-1.084.96-1.4367.4595-.3647 1.0288-.5635 1.6154-.5642.2631-.0045.5241.0478.7652.1532.2412.1055.4567.2617.632.458.0894.1376.2126.25.3578.3266.1451.0765.3075.1146.4716.1106.1525-.0068.2997-.0579.4236-.1471s.2192-.2125.274-.355c.2775-.6675.4824-1.3629.6112-2.0742z"/></g></svg>