<svg xmlns="http://www.w3.org/2000/svg" width="12.001" height="10" viewBox="0 0 12.001 10">
    <g transform="translate(-1.457 -3.27)">
        <rect fill="#fff" fill-opacity="0.5" width="3" height="2" rx="1" transform="translate(6.457 6.27)" />
        <path fill="#fff"
            d="M2.056,9.808A.4.4,0,0,1,2,9.6V7.917A2.666,2.666,0,0,1,0,5.334V2.667A2.669,2.669,0,0,1,2.667,0H9.334A2.669,2.669,0,0,1,12,2.667V5.334A2.669,2.669,0,0,1,9.334,8H6.185L2.605,9.941a.4.4,0,0,1-.549-.133ZM1.333,2.667V5.334A1.336,1.336,0,0,0,2.667,6.668h.266a.4.4,0,0,1,.4.4v.854a.133.133,0,0,0,.133.133.131.131,0,0,0,.068-.019l2.28-1.368H9.334a1.335,1.335,0,0,0,1.333-1.334V2.667A1.334,1.334,0,0,0,9.334,1.334H2.667A1.335,1.335,0,0,0,1.333,2.667ZM8.424,4a.667.667,0,1,1,.667.667A.667.667,0,0,1,8.424,4ZM3.334,4A.666.666,0,1,1,4,4.667.667.667,0,0,1,3.334,4Z"
            transform="translate(1.457 3.27)" />
    </g>
</svg>