<svg width="19" height="20" viewBox="0 0 19 20" fill="none" xmlns="http://www.w3.org/2000/svg">
<path opacity="0.5" fill-rule="evenodd" clip-rule="evenodd" d="M14 4.47819C14 4.02195 14.3699 3.6521 14.8261 3.6521H18.1739C18.6301 3.6521 19 4.02195 19 4.47819C19 4.93442 18.6301 5.30427 18.1739 5.30427H14.8261C14.3699 5.30427 14 4.93442 14 4.47819Z" fill="white"/>
<path fill-rule="evenodd" clip-rule="evenodd" d="M14 8.13029C14 7.67405 14.3699 7.3042 14.8261 7.3042H18.1739C18.6301 7.3042 19 7.67405 19 8.13029C19 8.58652 18.6301 8.95637 18.1739 8.95637H14.8261C14.3699 8.95637 14 8.58652 14 8.13029Z" fill="white"/>
<path opacity="0.5" fill-rule="evenodd" clip-rule="evenodd" d="M14 11.7826C14 11.3264 14.3699 10.9565 14.8261 10.9565H18.1739C18.6301 10.9565 19 11.3264 19 11.7826C19 12.2389 18.6301 12.6087 18.1739 12.6087H14.8261C14.3699 12.6087 14 12.2389 14 11.7826Z" fill="white"/>
<path fill-rule="evenodd" clip-rule="evenodd" d="M14 15.4347C14 14.9785 14.3699 14.6086 14.8261 14.6086H18.1739C18.6301 14.6086 19 14.9785 19 15.4347C19 15.891 18.6301 16.2608 18.1739 16.2608H14.8261C14.3699 16.2608 14 15.891 14 15.4347Z" fill="white"/>
<path opacity="0.5" fill-rule="evenodd" clip-rule="evenodd" d="M14 19.0868C14 18.6306 14.3699 18.2607 14.8261 18.2607H18.1739C18.6301 18.2607 19 18.6306 19 19.0868C19 19.5431 18.6301 19.9129 18.1739 19.9129H14.8261C14.3699 19.9129 14 19.5431 14 19.0868Z" fill="white"/>
<path fill-rule="evenodd" clip-rule="evenodd" d="M14 0.826087C14 0.369852 14.3699 0 14.8261 0H18.1739C18.6301 0 19 0.369852 19 0.826087C19 1.28232 18.6301 1.65217 18.1739 1.65217H14.8261C14.3699 1.65217 14 1.28232 14 0.826087Z" fill="white"/>
<path opacity="0.5" fill-rule="evenodd" clip-rule="evenodd" d="M12 15.4349C12 15.8911 11.6301 16.261 11.1739 16.261L7.82609 16.261C7.36985 16.261 7 15.8911 7 15.4349C7 14.9787 7.36985 14.6088 7.82609 14.6088L11.1739 14.6088C11.6301 14.6088 12 14.9787 12 15.4349Z" fill="white"/>
<path fill-rule="evenodd" clip-rule="evenodd" d="M12 11.7828C12 12.239 11.6301 12.6089 11.1739 12.6089L7.82609 12.6089C7.36985 12.6089 7 12.239 7 11.7828C7 11.3266 7.36985 10.9567 7.82609 10.9567L11.1739 10.9567C11.6301 10.9567 12 11.3266 12 11.7828Z" fill="white"/>
<path opacity="0.5" fill-rule="evenodd" clip-rule="evenodd" d="M12 8.13046C12 8.58669 11.6301 8.95654 11.1739 8.95654L7.82609 8.95654C7.36985 8.95654 7 8.58669 7 8.13046C7 7.67422 7.36985 7.30437 7.82609 7.30437L11.1739 7.30437C11.6301 7.30437 12 7.67422 12 8.13046Z" fill="white"/>
<path fill-rule="evenodd" clip-rule="evenodd" d="M12 4.47836C12 4.93459 11.6301 5.30444 11.1739 5.30444L7.82609 5.30444C7.36985 5.30444 7 4.93459 7 4.47836C7 4.02212 7.36985 3.65227 7.82609 3.65227L11.1739 3.65227C11.6301 3.65227 12 4.02212 12 4.47836Z" fill="white"/>
<path opacity="0.5" fill-rule="evenodd" clip-rule="evenodd" d="M12 0.826257C12 1.28249 11.6301 1.65234 11.1739 1.65234L7.82609 1.65234C7.36985 1.65234 7 1.28249 7 0.826256C7 0.370021 7.36985 0.000169468 7.82609 0.000169508L11.1739 0.000169801C11.6301 0.000169841 12 0.370022 12 0.826257Z" fill="white"/>
<path fill-rule="evenodd" clip-rule="evenodd" d="M12 19.087C12 19.5432 11.6301 19.9131 11.1739 19.9131L7.82609 19.9131C7.36985 19.9131 7 19.5432 7 19.087C7 18.6308 7.36985 18.2609 7.82609 18.2609L11.1739 18.2609C11.6301 18.2609 12 18.6308 12 19.087Z" fill="white"/>
<path opacity="0.5" fill-rule="evenodd" clip-rule="evenodd" d="M5 15.4349C5 15.8911 4.63015 16.261 4.17391 16.261L0.826086 16.261C0.369851 16.261 3.23335e-08 15.8911 7.22188e-08 15.4349C1.12104e-07 14.9787 0.369852 14.6088 0.826087 14.6088L4.17391 14.6088C4.63015 14.6088 5 14.9787 5 15.4349Z" fill="white"/>
<path fill-rule="evenodd" clip-rule="evenodd" d="M5 11.7828C5 12.239 4.63015 12.6089 4.17391 12.6089L0.826086 12.6089C0.369851 12.6089 3.23335e-08 12.239 7.22188e-08 11.7828C1.12104e-07 11.3266 0.369852 10.9567 0.826087 10.9567L4.17391 10.9567C4.63015 10.9567 5 11.3266 5 11.7828Z" fill="white"/>
<path opacity="0.5" fill-rule="evenodd" clip-rule="evenodd" d="M5 8.13046C5 8.58669 4.63015 8.95654 4.17391 8.95654L0.826086 8.95654C0.369851 8.95654 3.23335e-08 8.58669 7.22188e-08 8.13046C1.12104e-07 7.67422 0.369852 7.30437 0.826087 7.30437L4.17391 7.30437C4.63015 7.30437 5 7.67422 5 8.13046Z" fill="white"/>
<path fill-rule="evenodd" clip-rule="evenodd" d="M5 4.47836C5 4.93459 4.63015 5.30444 4.17391 5.30444L0.826086 5.30444C0.369851 5.30444 3.23335e-08 4.93459 7.22188e-08 4.47836C1.12104e-07 4.02212 0.369852 3.65227 0.826087 3.65227L4.17391 3.65227C4.63015 3.65227 5 4.02212 5 4.47836Z" fill="white"/>
<path opacity="0.5" fill-rule="evenodd" clip-rule="evenodd" d="M5 0.826257C5 1.28249 4.63015 1.65234 4.17391 1.65234L0.826086 1.65234C0.369851 1.65234 3.23335e-08 1.28249 7.22188e-08 0.826256C1.12104e-07 0.370021 0.369852 0.000169468 0.826087 0.000169508L4.17391 0.000169801C4.63015 0.000169841 5 0.370022 5 0.826257Z" fill="white"/>
<path fill-rule="evenodd" clip-rule="evenodd" d="M5 19.087C5 19.5432 4.63015 19.9131 4.17391 19.9131L0.826086 19.9131C0.369851 19.9131 3.23335e-08 19.5432 7.22188e-08 19.087C1.12104e-07 18.6308 0.369852 18.2609 0.826087 18.2609L4.17391 18.2609C4.63015 18.2609 5 18.6308 5 19.087Z" fill="white"/>
</svg>
