<svg xmlns="http://www.w3.org/2000/svg" width="24" height="26.57" viewBox="0 0 24 26.57">

    <g transform="translate(0 -1.549)">
        <path fill="#fff" opacity="0.5"
            d="M-.006.257A.255.255,0,0,1,.251,0H7.7a.251.251,0,0,1,.254.254H7.946A3.98,3.98,0,0,1,3.974,3.98,3.98,3.98,0,0,1,0,.257Z"
            transform="translate(7.712 24.14)" />
        <path fill="#fff"
            d="M22.667,21H1.333a1.313,1.313,0,1,1,0-2.625H2.666l.67-7.9A8.436,8.436,0,0,1,5.311,5.715,8.677,8.677,0,0,1,9.6,2.955a1.942,1.942,0,0,1-.269-.986,1.987,1.987,0,0,1,2-1.969h1.334a1.987,1.987,0,0,1,2,1.969,1.941,1.941,0,0,1-.269.986,8.679,8.679,0,0,1,4.291,2.759,8.436,8.436,0,0,1,1.975,4.758l.67,7.9h1.333a1.313,1.313,0,1,1,0,2.625ZM12,5.22a5.393,5.393,0,0,0-1.469.2l-.194.054A5.989,5.989,0,0,0,5.993,10.69l-.65,7.685H18.658l-.65-7.685a5.989,5.989,0,0,0-4.344-5.212l-.194-.054A5.393,5.393,0,0,0,12,5.22Z"
            transform="translate(0 1.549)" />
    </g>
</svg>