<svg xmlns="http://www.w3.org/2000/svg" width="20.002" height="20" viewBox="0 0 20.002 20">
    <g opacity="0.5" transform="translate(-2 -2)">
        <path opacity="0.5" fill="#fff"
            d="M-.006.194A.192.192,0,0,1,.188,0H5.8a.189.189,0,0,1,.191.191H5.988A3,3,0,0,1,2.994,3,3,3,0,0,1,0,.194Z"
            transform="translate(9.006 19)" />
        <path fill="#fff"
            d="M2,16a1,1,0,1,1,0-2H3l.5-6.021A6.524,6.524,0,0,1,8.2,2.252,1.5,1.5,0,0,1,9.5,0h1a1.5,1.5,0,0,1,1.3,2.252,6.521,6.521,0,0,1,4.7,5.728L17,14h1a1,1,0,1,1,0,2ZM8.9,4.133l-.146.041A4.545,4.545,0,0,0,5.495,8.145L5.007,14h9.986l-.488-5.855a4.545,4.545,0,0,0-3.258-3.971L11.1,4.133a3.975,3.975,0,0,0-2.2,0ZM.916,12A1,1,0,0,1,0,10.921L.269,7.73A9.509,9.509,0,0,1,2.5,2.357,1,1,0,1,1,4.022,3.651,7.511,7.511,0,0,0,2.261,7.9L2,11.086A1,1,0,0,1,1,12Q.959,12,.916,12Zm17.092-.914L17.742,7.9a7.505,7.505,0,0,0-1.764-4.248,1,1,0,1,1,1.523-1.3A9.513,9.513,0,0,1,19.733,7.73L20,10.92A1,1,0,0,1,19.086,12q-.042,0-.084,0A1,1,0,0,1,18.008,11.085Z"
            transform="translate(2 2)" />
    </g>
</svg>