<svg xmlns="http://www.w3.org/2000/svg" width="19.999" height="20" viewBox="0 0 19.999 20">
    <g transform="translate(-2.001 -2)">
        <path fill="#fff" opacity="0.5"
            d="M.3.3A1.009,1.009,0,0,1,1.722.3L7.4,5.974A1.009,1.009,0,0,1,5.974,7.4L.3,1.722A1.009,1.009,0,0,1,.3.3Z"
            transform="translate(13.304 2)" />
        <path fill="#fff"
            d="M16,16.158c0-1.235.613-2.432,1.853-3.954a.211.211,0,0,1,.029-.028.19.19,0,0,1,.264.028C19.387,13.728,20,14.925,20,16.158a2,2,0,0,1-4,0Zm-9.532.108-5.6-5.6a2.971,2.971,0,0,1,0-4.2l5.6-5.6a2.969,2.969,0,0,1,4.2,0l5.6,5.6a2.971,2.971,0,0,1,0,4.2l-5.6,5.6a2.969,2.969,0,0,1-4.2,0Zm1.4-14-5.6,5.6a.99.99,0,0,0,0,1.4l5.6,5.6a.99.99,0,0,0,1.4,0l5.6-5.6a.99.99,0,0,0,0-1.4l-5.6-5.6a.99.99,0,0,0-1.4,0Zm0,11.2-4.2-4.2a.988.988,0,0,1,0-1.4l1.809-1.81a1,1,0,0,1,.7-.29h4.778a1,1,0,0,1,.7.29l1.81,1.81a.99.99,0,0,1,0,1.4l-4.2,4.2a.99.99,0,0,1-1.4,0ZM6.381,7.848,5.8,8.426a.2.2,0,0,0,0,.283l2.623,2.623a.2.2,0,0,0,.283,0l2.623-2.623a.2.2,0,0,0,0-.283l-.578-.578a.6.6,0,0,0-.425-.175H6.806A.6.6,0,0,0,6.381,7.848Z"
            transform="translate(2 3.865)" />
    </g>
</svg>