<svg xmlns="http://www.w3.org/2000/svg" width="10" height="14" viewBox="0 0 10 14">
    <g transform="translate(-5 -5)">
        <g transform="translate(3.16 3.086)">
            <path fill="#fff"
                d="M7.857,14H2.143A2.124,2.124,0,0,1,0,11.9V2.1A2.124,2.124,0,0,1,2.143,0H7.857A2.124,2.124,0,0,1,10,2.1v9.8A2.124,2.124,0,0,1,7.857,14ZM1.428,11.9a.708.708,0,0,0,.714.7H7.857a.708.708,0,0,0,.714-.7ZM2.143,1.4a.708.708,0,0,0-.714.7v8.4H8.571V2.1a.708.708,0,0,0-.714-.7Z"
                transform="translate(1.84 1.914)" />
            <path fill="#fff" fill-opacity="0.5" d="M.691,0H2.074a.691.691,0,1,1,0,1.383H.691A.691.691,0,0,1,.691,0Z"
                transform="translate(5.457 4.074)" />
        </g>
    </g>
</svg>