<svg xmlns="http://www.w3.org/2000/svg" width="20" height="20" viewBox="0 0 20 20">
 
    <g transform="translate(-2 -2)">
        <path class="a" fill="#fff" opacity="0.5"
            d="M1.082,8A5.132,5.132,0,0,1,.113,6H5.585l-2,2ZM0,5A4.642,4.642,0,0,1,.462,3H8.586l-2,2ZM1.082,2A7.251,7.251,0,0,1,3.587,0h8l-2,2Z"
            transform="translate(4 5)" />
        <path fill="#fff"
            d="M10,20a11.351,11.351,0,0,1-7.053-2.32A7.239,7.239,0,0,1,0,12V8A7.239,7.239,0,0,1,2.947,2.32,11.351,11.351,0,0,1,10,0a11.351,11.351,0,0,1,7.053,2.32A7.239,7.239,0,0,1,20,8v4a7.239,7.239,0,0,1-2.947,5.68A11.351,11.351,0,0,1,10,20ZM2.093,12.91a5.849,5.849,0,0,0,2.658,3.609A9.651,9.651,0,0,0,10,18a9.651,9.651,0,0,0,5.249-1.481,5.849,5.849,0,0,0,2.657-3.609A11,11,0,0,1,10,16,11,11,0,0,1,2.093,12.91Zm8.071-3.661h0L6.155,13.259A10.136,10.136,0,0,0,10,14a9.5,9.5,0,0,0,5.513-1.662L10.165,9.249ZM10,2A9.409,9.409,0,0,0,4.325,3.781,5.336,5.336,0,0,0,2,8c0,.078,0,.161.007.249A4.475,4.475,0,0,0,2.113,9a5.1,5.1,0,0,0,.968,2,6.67,6.67,0,0,0,1.267,1.237l9.5-9.495A10.119,10.119,0,0,0,10,2Zm5.651,1.763h0L11.629,7.786,17,10.888A4.863,4.863,0,0,0,18,8a5.342,5.342,0,0,0-2.349-4.237Z"
            transform="translate(2 2)" />
    </g>
</svg>