<svg width="64" height="64" viewBox="0 0 64 64" fill="none" xmlns="http://www.w3.org/2000/svg">
<path d="M63.1523 57.0642V47.8108L47.7404 32.003H38.7187L63.1523 57.0642Z" fill="white"/>
<path d="M7.51911 64H16.4324L31.5768 48.581L46.6129 64H55.7314L31.5768 39.3276L7.51911 64Z" fill="white"/>
<path d="M0 6.93579L0 16.1892L15.412 31.997H24.4336L0 6.93579Z" fill="white"/>
<path d="M55.6342 -5.18077e-05H46.7209L31.5765 15.4189L16.5404 -5.18077e-05H7.42187L31.5765 24.6723L55.6342 -5.18077e-05Z" fill="white"/>
<path d="M31.6462 36.2357C33.9696 36.2357 35.853 34.3039 35.853 31.9208C35.853 29.5378 33.9696 27.606 31.6462 27.606C29.3229 27.606 27.4395 29.5378 27.4395 31.9208C27.4395 34.3039 29.3229 36.2357 31.6462 36.2357Z" fill="#E6007A"/>
</svg>
