<svg xmlns="http://www.w3.org/2000/svg" width="20" height="20" viewBox="0 0 20 20">

    <g transform="translate(-2 -2)">
        <path fill="#fff" opacity="0.5"
            d="M1.39,6.714A1,1,0,0,1,.611,4.871q.226-.1.445-.2A8.038,8.038,0,0,0,4.668,1.055q.109-.219.2-.444a1,1,0,1,1,1.842.779q-.119.282-.256.556A10.038,10.038,0,0,1,1.947,6.458Q1.672,6.594,1.39,6.714Z"
            transform="translate(14.5 14.501)" />
        <path fill="#fff"
            d="M0,10a10,10,0,1,1,20,0,1,1,0,1,1-2,0,8,8,0,1,0-8,8,1,1,0,1,1,0,2A10,10,0,0,1,0,10Zm9.4,6a.4.4,0,0,1-.4-.4V14.4a.4.4,0,0,1,.4-.4h1.2a.4.4,0,0,1,.4.4v1.2a.4.4,0,0,1-.4.4Zm0-3a.4.4,0,0,1-.4-.4v-.845a2.445,2.445,0,0,1,.138-.819,4.345,4.345,0,0,1,.353-.761l1.255-2.028a1.525,1.525,0,0,0,.206-.546A3.555,3.555,0,0,0,11,7.016V6.983A.966.966,0,0,0,10,6a1.06,1.06,0,0,0-.667.242A.876.876,0,0,0,9,6.983V7.6a.4.4,0,0,1-.4.4H7.4A.4.4,0,0,1,7,7.6V6.964a2.9,2.9,0,0,1,.235-1.151,3.042,3.042,0,0,1,.647-.955,3.233,3.233,0,0,1,.961-.625A2.894,2.894,0,0,1,10,4a3.075,3.075,0,0,1,1.343.292,2.707,2.707,0,0,1,.991.819,5.638,5.638,0,0,1,.323.5,2.247,2.247,0,0,1,.206.5A5.871,5.871,0,0,1,13,7.339a4.66,4.66,0,0,1-.059.595,2.9,2.9,0,0,1-.1.438,1.485,1.485,0,0,1-.157.341l-1.353,2.3a3.668,3.668,0,0,0-.236.477l-.074,1.135a.4.4,0,0,1-.4.373Z"
            transform="translate(2 2)" />
    </g>
</svg>