<svg xmlns="http://www.w3.org/2000/svg" width="20" height="20" viewBox="0 0 20 20">

    <g transform="translate(-2 -2)">
        <path fill="#fff" opacity="0.5"
            d="M4,6A7.824,7.824,0,0,1,.618,5.246.9.9,0,0,1,1.39,3.62,6.042,6.042,0,0,0,4,4.2a6.044,6.044,0,0,0,2.616-.588A.893.893,0,0,1,7,3.53a.9.9,0,0,1,.813.514.9.9,0,0,1-.426,1.2A7.843,7.843,0,0,1,4,6ZM6.75,2.5A1.25,1.25,0,1,1,8,1.25,1.252,1.252,0,0,1,6.75,2.5Zm-5.5,0A1.25,1.25,0,1,1,2.5,1.25,1.252,1.252,0,0,1,1.25,2.5Z"
            transform="translate(8 13)" />
        <path fill="#fff"
            d="M10,20a11.018,11.018,0,0,1-6.347-1.867A5.719,5.719,0,0,1,.991,13.5a4.955,4.955,0,0,1,.029-.531A3.5,3.5,0,0,1,5.705,7.776,11.663,11.663,0,0,1,9,7.039.955.955,0,0,1,9.02,6.8L9.8,2.915a2,2,0,0,1,2.356-1.57,2.067,2.067,0,0,1,.24.064l.9.3A3,3,0,1,1,16.007,6a1,1,0,1,1,0-2,1,1,0,1,0-1-1.016.972.972,0,0,1-.013.176l0,.014,0,.014a1.007,1.007,0,0,1-.033.129.971.971,0,0,1-.076.17,1,1,0,0,1-.688.5A.977.977,0,0,1,14.006,4a.942.942,0,0,1-.161-.013l-.027,0a.931.931,0,0,1-.151-.041l-1.905-.635L11.014,7.04a11.674,11.674,0,0,1,3.281.736,3.5,3.5,0,0,1,4.686,5.191,5,5,0,0,1,.029.533,5.719,5.719,0,0,1-2.662,4.633A11.018,11.018,0,0,1,10,20ZM3.494,9a1.5,1.5,0,0,0-1.005,2.606A1.487,1.487,0,0,0,3,11.913a.4.4,0,0,1,.242.509A3.381,3.381,0,0,0,2.993,13.5a3.944,3.944,0,0,0,2.029,3.146A9.166,9.166,0,0,0,10,18a9.168,9.168,0,0,0,4.979-1.354A3.944,3.944,0,0,0,17.009,13.5a3.33,3.33,0,0,0-.244-1.067.407.407,0,0,1,.245-.522,1.5,1.5,0,1,0-1.5-2.531,1.369,1.369,0,0,0-.3.455.507.507,0,0,1-.46.3.5.5,0,0,1-.208-.045l-.034-.017A9.541,9.541,0,0,0,10,9a9.535,9.535,0,0,0-4.507,1.072.5.5,0,0,1-.679-.2C4.809,9.863,4.8,9.851,4.8,9.84a1.358,1.358,0,0,0-.3-.459A1.5,1.5,0,0,0,3.494,9Z"
            transform="translate(2 2)" />
    </g>
</svg>