<svg xmlns="http://www.w3.org/2000/svg" width="20" height="18" viewBox="0 0 20 18">

    <g transform="translate(-2 -3)">
        <path 
        fill="#fff"
        opacity="0.5"
         d="M1,0H19a1,1,0,0,1,0,2H1A1,1,0,0,1,1,0Z" transform="translate(2 11)" />
        <path fill="#fff"
            d="M11.294,18a1,1,0,1,1,0-2H16V12.294a1,1,0,1,1,2,0v3.765A1.942,1.942,0,0,1,16.059,18ZM1.941,18A1.942,1.942,0,0,1,0,16.059V12.294a1,1,0,1,1,2,0V16H6.706a1,1,0,1,1,0,2ZM16,5.706V2H11.294a1,1,0,0,1,0-2h4.765A1.942,1.942,0,0,1,18,1.941V5.706a1,1,0,1,1-2,0Zm-16,0V1.941A1.942,1.942,0,0,1,1.941,0H6.706a1,1,0,0,1,0,2H2V5.706a1,1,0,0,1-2,0Z"
            transform="translate(3 3)" />
    </g>
</svg>