<svg xmlns="http://www.w3.org/2000/svg" width="25.407" height="23.597" viewBox="0 0 25.407 23.597">
    <path 
        d="M0,2.188A11.568,11.568,0,0,0,2.3,0L6.811,4.3a1.5,1.5,0,0,1,0,2.188,1.682,1.682,0,0,1-2.3,0L0,2.188Z"
        transform="translate(18.12 16.655)" 
        fill="#abb2bc"
        opacity="0.5"
        />
    <path fill="#fff"
        d="M11.021,22.042A11.021,11.021,0,1,1,22.042,11.021,11.033,11.033,0,0,1,11.021,22.042Zm.136-19.593a8.572,8.572,0,1,0,8.572,8.572A8.581,8.581,0,0,0,11.156,2.449Z" />
</svg>