<svg xmlns="http://www.w3.org/2000/svg" width="16" height="20" viewBox="0 0 16 20">

    <g transform="translate(-4 -2)">
        <rect fill="#fff" opacity="0.5" width="2" height="2" rx="0.4" transform="translate(18 9)" />
        <path fill="#fff"
            d="M8,20a.685.685,0,0,1-.325-.079c-.129-.059-.3-.142-.532-.262s-.586-.327-1.119-.651-1.031-.661-1.512-1.018a17.334,17.334,0,0,1-1.581-1.354,12,12,0,0,1-1.475-1.675A8.548,8.548,0,0,1,.419,12.991,6.342,6.342,0,0,1,0,10.75V3.687A.833.833,0,0,1,.238,3.1.754.754,0,0,1,.8,2.847,28.856,28.856,0,0,0,7.115.429c.115-.073.257-.167.422-.282a.8.8,0,0,1,.927,0c.183.127.317.216.422.282A28.874,28.874,0,0,0,15.2,2.847a.754.754,0,0,1,.563.249A.833.833,0,0,1,16,3.687V5.4a.6.6,0,0,1-.6.6h-.8a.6.6,0,0,1-.6-.6V4.575A29.262,29.262,0,0,1,8,2.232,29.281,29.281,0,0,1,2,4.575V10.75a4.282,4.282,0,0,0,.291,1.535,6.513,6.513,0,0,0,.789,1.508,10.009,10.009,0,0,0,1.23,1.394,15.4,15.4,0,0,0,1.395,1.2c.435.324.893.632,1.36.915.423.257.747.447.935.549.18-.1.5-.286.935-.549.469-.286.926-.594,1.359-.915a15.418,15.418,0,0,0,1.4-1.2,10,10,0,0,0,1.229-1.394,6.5,6.5,0,0,0,.79-1.509A4.272,4.272,0,0,0,14,10.75V10.6a.6.6,0,0,1,.6-.6h.8a.6.6,0,0,1,.6.6v.15a6.342,6.342,0,0,1-.418,2.24,8.555,8.555,0,0,1-1.039,1.971,12,12,0,0,1-1.474,1.675,17.616,17.616,0,0,1-1.581,1.354c-.478.355-.987.7-1.513,1.018s-.9.535-1.119.651-.4.2-.531.262A.685.685,0,0,1,8,20Zm-.976-7a1.08,1.08,0,0,1-.781-.333L4.162,10.52a.583.583,0,0,1,0-.8l.52-.536a.541.541,0,0,1,.781,0l1.171,1.207a.54.54,0,0,0,.78,0l3.123-3.219a.54.54,0,0,1,.78,0l.521.536a.582.582,0,0,1,0,.8L7.8,12.667A1.08,1.08,0,0,1,7.024,13Z"
            transform="translate(4 2)" />
    </g>
</svg>