<svg width="50" height="59" viewBox="0 0 50 59" fill="none" xmlns="http://www.w3.org/2000/svg">
<path opacity="0.2" d="M26.9056 11.1244C26.9056 5.31037 21.9984 0.417892 16.6845 2.77712C13.4457 4.21511 10.4686 6.33625 7.9433 9.05578C2.91419 14.4717 0.0888674 21.8174 0.0888672 29.4767C0.088867 37.136 2.91419 44.4816 7.94329 49.8976C10.4686 52.6171 13.4457 54.7383 16.6845 56.1763C21.9984 58.5355 26.9056 53.643 26.9056 47.829L26.9056 11.1244Z" fill="#ABB2BC"/>
<path d="M14.2622 29.2594C14.2622 28.3981 14.8565 27.6862 15.6276 27.5736L15.842 27.5581L47.4379 27.5581C48.3104 27.5581 49.0177 28.3198 49.0177 29.2594C49.0177 30.1207 48.4234 30.8325 47.6523 30.9452L47.4379 30.9607L15.842 30.9607C14.9695 30.9607 14.2622 30.199 14.2622 29.2594Z" fill="white"/>
<path d="M33.5789 16.7992C32.9606 16.1362 32.9585 15.059 33.5741 14.3932C34.1337 13.7879 35.0113 13.7309 35.6307 14.2237L35.8082 14.388L48.5519 28.053C49.1157 28.6575 49.167 29.606 48.7058 30.2731L48.552 30.4641L35.8083 44.1314C35.1901 44.7944 34.1898 44.7922 33.5742 44.1264C33.0145 43.5211 32.9653 42.5759 33.4255 41.9108L33.5788 41.7204L45.1977 29.2579L33.5789 16.7992Z" fill="white"/>
</svg>
