<svg xmlns="http://www.w3.org/2000/svg" width="16.933" height="16.933" viewBox="0 0 16.933 16.933">

    <path fill="#fff" opacity="0.5"
        d="M6.719,3.36a.84.84,0,0,1-1.68,0A1.68,1.68,0,1,0,3.36,5.04a.84.84,0,1,1,0,1.68,3.36,3.36,0,1,1,3.36-3.36Z"
        transform="translate(4.813 4.62)" />
    <path fill="#fff"
        d="M9.9,16.933H7.03a1.4,1.4,0,0,1-1.391-1.209l-.115-.889a.337.337,0,0,0-.163-.248l-.754-.447a.34.34,0,0,0-.173-.047.336.336,0,0,0-.128.025l-.93.38a1.413,1.413,0,0,1-1.746-.579L.193,11.5a1.373,1.373,0,0,1,.37-1.81l.9-.662A.34.34,0,0,0,1.6,8.752v-.57A.339.339,0,0,0,1.46,7.91l-.9-.662a1.373,1.373,0,0,1-.37-1.811L1.629,3.015a1.413,1.413,0,0,1,1.746-.58l.93.381a.342.342,0,0,0,.129.025.339.339,0,0,0,.172-.047l.754-.447A.336.336,0,0,0,5.524,2.1l.115-.889A1.4,1.4,0,0,1,7.03,0H9.9a1.4,1.4,0,0,1,1.391,1.209l.115.889a.34.34,0,0,0,.163.248l.754.447a.339.339,0,0,0,.172.047.342.342,0,0,0,.129-.025l.93-.381a1.413,1.413,0,0,1,1.746.58l1.437,2.422a1.375,1.375,0,0,1-.37,1.811l-.9.662a.341.341,0,0,0-.137.272v.57a.341.341,0,0,0,.137.273l.9.662a1.374,1.374,0,0,1,.37,1.81L15.3,13.92a1.413,1.413,0,0,1-1.746.579l-.93-.38a.335.335,0,0,0-.128-.025.34.34,0,0,0-.173.047l-.754.447a.341.341,0,0,0-.163.248l-.115.889A1.4,1.4,0,0,1,9.9,16.933ZM4.52,12.425a1.527,1.527,0,0,1,.774.211l1.026.6a1.494,1.494,0,0,1,.731,1.1l.079.605a.34.34,0,0,0,.336.295h2a.34.34,0,0,0,.336-.295l.079-.605a1.494,1.494,0,0,1,.731-1.1l1.026-.6a1.525,1.525,0,0,1,1.348-.1l.7.285a.337.337,0,0,0,.127.025.342.342,0,0,0,.292-.165l.974-1.631a.336.336,0,0,0-.09-.447l-.657-.482a1.509,1.509,0,0,1-.616-1.211V8.021a1.509,1.509,0,0,1,.616-1.211l.657-.481a.338.338,0,0,0,.09-.447l-.974-1.631a.341.341,0,0,0-.291-.165.336.336,0,0,0-.128.025l-.7.284a1.527,1.527,0,0,1-1.348-.1l-1.026-.6a1.491,1.491,0,0,1-.731-1.1L9.8,1.988a.34.34,0,0,0-.336-.295h-2a.34.34,0,0,0-.336.295l-.079.605a1.491,1.491,0,0,1-.731,1.1l-1.026.6a1.529,1.529,0,0,1-1.349.1l-.7-.284a.337.337,0,0,0-.418.139L1.852,5.882a.338.338,0,0,0,.091.447L2.6,6.81a1.509,1.509,0,0,1,.616,1.211v.892A1.509,1.509,0,0,1,2.6,10.123l-.656.482a.336.336,0,0,0-.091.447l.975,1.631a.339.339,0,0,0,.418.14l.7-.285A1.519,1.519,0,0,1,4.52,12.425Z" />
</svg>