<svg xmlns="http://www.w3.org/2000/svg" width="36" height="36" viewBox="0 0 36 36">

    <g transform="translate(0.427 -0.411)">
        <path fill="#fff" opacity="0.5"
            d="M.453,2.959A1.775,1.775,0,1,1,3.1.591,8.848,8.848,0,0,0,9.713,3.549,8.848,8.848,0,0,0,16.328.592a1.775,1.775,0,0,1,2.645,2.369A12.4,12.4,0,0,1,9.713,7.1,12.4,12.4,0,0,1,.453,2.959Z"
            transform="translate(8.039 21.304)" />
        <path fill="#fff"
            d="M18,36A18,18,0,1,1,36,18,18.02,18.02,0,0,1,18,36ZM18,3.6A14.4,14.4,0,1,0,32.4,18,14.417,14.417,0,0,0,18,3.6ZM27,18a1.8,1.8,0,0,1-1.8-1.8v-.9a.9.9,0,0,0-1.8,0v.9a1.8,1.8,0,0,1-3.6,0v-.9a4.5,4.5,0,0,1,9,0v.9A1.8,1.8,0,0,1,27,18ZM14.4,18a1.8,1.8,0,0,1-1.8-1.8v-.9a.9.9,0,0,0-1.8,0v.9a1.8,1.8,0,0,1-3.6,0v-.9a4.5,4.5,0,0,1,9,0v.9A1.8,1.8,0,0,1,14.4,18Z"
            transform="translate(-0.427 0.411)" />
    </g>
</svg>