<svg xmlns="http://www.w3.org/2000/svg" width="17.955" height="16.462" viewBox="0 0 17.955 16.462">


    <path opacity="0.5" fill="#fff"
        d="M3.02.343a.363.363,0,0,1,.56.2L4.1,2.755a1.009,1.009,0,0,1-.8,1.206,1.093,1.093,0,0,1-.769-.117L.507,2.691a.34.34,0,0,1-.028-.58Z"
        transform="translate(10.803 12.475)" />
    <path fill="#fff"
        d="M10.7,12.861,4.578,16.342a1.079,1.079,0,0,1-1.4-.374.973.973,0,0,1-.122-.737l1.115-4.74L.358,7.284a.98.98,0,0,1-.1-1.424,1.069,1.069,0,0,1,.694-.339L6,5.073,8.01.61A1.071,1.071,0,0,1,9.394.083,1.032,1.032,0,0,1,9.945.61L11.95,5.073,17,5.521a1.022,1.022,0,0,1,.951,1.1.992.992,0,0,1-.3.619l-5.362,4.514L10.7,12.861Z"
        transform="translate(0)" />

</svg>