<svg xmlns="http://www.w3.org/2000/svg" width="20" height="20" viewBox="0 0 20 20">

    <g transform="translate(-2 -2)">
        <circle fill="#fff" opacity="0.5" cx="2" cy="2" r="2" transform="translate(10 18)" />
        <path fill="#fff"
            d="M14,19H11.732a2,2,0,0,0,0-2H14a2,2,0,0,0,2-2h-.6a.4.4,0,0,1-.4-.4V6c0-1.982-2.524-4-5-4S5,4.019,5,6v8.6a.4.4,0,0,1-.4.4H2.5A2.5,2.5,0,0,1,0,12.5v-3A2.5,2.5,0,0,1,2.5,7H3V6a5.623,5.623,0,0,1,2.2-4.21A7.65,7.65,0,0,1,10,0a7.65,7.65,0,0,1,4.8,1.791A5.623,5.623,0,0,1,17,6V7h.5A2.5,2.5,0,0,1,20,9.5v3a2.5,2.5,0,0,1-2,2.45,4.048,4.048,0,0,1-1.171,2.872A3.954,3.954,0,0,1,14,19ZM17,9v4h.5a.5.5,0,0,0,.5-.5v-3a.5.5,0,0,0-.5-.5ZM2.5,9a.5.5,0,0,0-.5.5v3a.5.5,0,0,0,.5.5H3V9Z"
            transform="translate(2 2)" />
    </g>
</svg>