<svg xmlns="http://www.w3.org/2000/svg" width="20" height="16" viewBox="0 0 20 16">

    <g transform="translate(-2 -4)">
        <path fill="#fff" opacity="0.5"
            d="M4,10H2.5A2.5,2.5,0,0,1,0,7.5v-5A2.5,2.5,0,0,1,2.5,0H4A1,1,0,0,1,5,1V9A1,1,0,0,1,4,10ZM2.5,2a.5.5,0,0,0-.5.5v5a.5.5,0,0,0,.5.5H3V2Z"
            transform="translate(2 10)" />
        <path fill="#fff"
            d="M9.768,16H2a2,2,0,0,1-2-2V7.414A3.437,3.437,0,0,1,1,5,3.392,3.392,0,0,0,2,2.586V1A1.021,1.021,0,0,1,3.164.01l2.37.4A2.94,2.94,0,0,1,8,3.32V4a2,2,0,0,0,2,2h1a3.017,3.017,0,0,1,3,3,2.943,2.943,0,0,1-.13.85l-1.229,4.012A2.982,2.982,0,0,1,9.768,16ZM4.195,2.215a.2.2,0,0,0-.2.2,5.829,5.829,0,0,1-1.586,4,1.408,1.408,0,0,0-.414,1V13.6a.4.4,0,0,0,.4.4H9.768a1.007,1.007,0,0,0,.958-.713L11.95,9.257A.953.953,0,0,0,11,8H10A4,4,0,0,1,6,4V3.32a.95.95,0,0,0-.795-.941l-.978-.162Z"
            transform="translate(8 4)" />
    </g>
</svg>