<svg width="132" height="19" viewBox="0 0 132 19" fill="none" xmlns="http://www.w3.org/2000/svg">
<path d="M4.47372 9.27458C4.47372 5.342 7.22652 3.47403 9.90559 3.47403C12.6092 3.47403 15.362 5.342 15.362 9.27458C15.362 13.2071 12.6092 15.0751 9.90559 15.0751C7.22652 15.0751 4.47372 13.2071 4.47372 9.27458ZM0.958984 9.29915C0.958984 14.9031 5.1865 18.3687 9.90559 18.3687C14.6493 18.3687 18.8768 14.9031 18.8768 9.29915C18.8768 3.67066 14.6493 0.205078 9.90559 0.205078C5.1865 0.205078 0.958984 3.67066 0.958984 9.29915Z" fill="white"/>
<path d="M28.9452 5.85815C28.6994 5.83357 28.4536 5.80899 28.1832 5.80899C27.1509 5.80899 25.4796 6.10394 24.7422 7.70155V5.90731H21.5716V18H24.8405V12.4698C24.8405 9.86446 26.2907 9.05337 27.962 9.05337C28.257 9.05337 28.5765 9.07795 28.9452 9.15168V5.85815Z" fill="white"/>
<path d="M42.6519 0.205078H39.4321V7.11166C39.088 6.47262 38.1049 5.61237 36.0157 5.61237C32.5993 5.61237 30.2152 8.38975 30.2152 11.9291C30.2152 15.5913 32.673 18.2949 36.114 18.2949C37.7362 18.2949 38.9652 17.5576 39.5059 16.599C39.5059 17.1643 39.5796 17.7542 39.6288 18H42.7503C42.7011 17.5084 42.6519 16.6236 42.6519 15.8125V0.205078ZM33.5087 11.9291C33.5087 9.76615 34.836 8.53722 36.5073 8.53722C38.1786 8.53722 39.4813 9.74157 39.4813 11.9045C39.4813 14.092 38.1786 15.3701 36.5073 15.3701C34.7868 15.3701 33.5087 14.092 33.5087 11.9291Z" fill="white"/>
<path d="M48.5823 10.5772C48.656 9.4712 49.59 8.19312 51.2859 8.19312C53.1539 8.19312 53.9404 9.37289 53.9896 10.5772H48.5823ZM54.3091 13.7233C53.9158 14.8048 53.0802 15.5667 51.5563 15.5667C49.9341 15.5667 48.5823 14.4115 48.5086 12.8139H57.1602C57.1602 12.7647 57.2094 12.2732 57.2094 11.8062C57.2094 7.92275 54.9727 5.53863 51.2368 5.53863C48.1399 5.53863 45.2888 8.04565 45.2888 11.9045C45.2888 15.9845 48.2136 18.3687 51.5317 18.3687C54.5057 18.3687 56.4229 16.6236 57.0373 14.5344L54.3091 13.7233Z" fill="white"/>
<path d="M67.1572 5.85815C66.9114 5.83357 66.6656 5.80899 66.3952 5.80899C65.3629 5.80899 63.6916 6.10394 62.9542 7.70155V5.90731H59.7836V18H63.0525V12.4698C63.0525 9.86446 64.5027 9.05337 66.174 9.05337C66.469 9.05337 66.7885 9.07795 67.1572 9.15168V5.85815Z" fill="white"/>
<path d="M72.6273 18V16.5253C73.2663 17.5576 74.5444 18.2949 76.2157 18.2949C79.6567 18.2949 81.918 15.5667 81.918 11.9045C81.918 8.31601 79.8779 5.58779 76.3386 5.58779C74.5444 5.58779 73.2171 6.3743 72.6764 7.23455V0.205078H69.4566V18H72.6273ZM78.649 11.9291C78.649 14.1411 77.3218 15.3701 75.6504 15.3701C74.0036 15.3701 72.6273 14.1166 72.6273 11.9291C72.6273 9.71699 74.0036 8.51264 75.6504 8.51264C77.3218 8.51264 78.649 9.71699 78.649 11.9291Z" fill="white"/>
<path d="M89.9381 15.3946C88.3404 15.3946 86.8657 14.2149 86.8657 11.9536C86.8657 9.66783 88.3404 8.51264 89.9381 8.51264C91.5357 8.51264 93.0104 9.66783 93.0104 11.9536C93.0104 14.2394 91.5357 15.3946 89.9381 15.3946ZM89.9381 5.53863C86.325 5.53863 83.5968 8.2177 83.5968 11.9536C83.5968 15.665 86.325 18.3687 89.9381 18.3687C93.5511 18.3687 96.2793 15.665 96.2793 11.9536C96.2793 8.2177 93.5511 5.53863 89.9381 5.53863Z" fill="white"/>
<path d="M104.292 15.3946C102.694 15.3946 101.219 14.2149 101.219 11.9536C101.219 9.66783 102.694 8.51264 104.292 8.51264C105.889 8.51264 107.364 9.66783 107.364 11.9536C107.364 14.2394 105.889 15.3946 104.292 15.3946ZM104.292 5.53863C100.679 5.53863 97.9503 8.2177 97.9503 11.9536C97.9503 15.665 100.679 18.3687 104.292 18.3687C107.905 18.3687 110.633 15.665 110.633 11.9536C110.633 8.2177 107.905 5.53863 104.292 5.53863Z" fill="white"/>
<path d="M124.937 5.90731H120.661L116.482 10.4052V0.205078H113.213V18H116.482V14.8048L117.834 13.3792L121.029 18H125.035L120.095 10.9951L124.937 5.90731Z" fill="white"/>
<path d="M127 15.9354C127 17.1643 128.008 18.172 129.237 18.172C130.49 18.172 131.498 17.1643 131.498 15.9354C131.498 14.7065 130.49 13.6987 129.237 13.6987C128.008 13.6987 127 14.7065 127 15.9354Z" fill="#E6007A"/>
</svg>
