<svg xmlns="http://www.w3.org/2000/svg" width="20" height="20" viewBox="0 0 20 20">

    <g transform="translate(-2 -2)">
        <path fill="#fff" opacity="0.5" d="M0,0H2.04l.8,4H.8Z" transform="translate(14.18 16)" />
        <path fill="#fff"
            d="M17,20H3A3,3,0,0,1,.058,16.411l1.2-6A3.012,3.012,0,0,1,4.176,8,10.82,10.82,0,0,1,4,6.026a6.061,6.061,0,0,1,1.68-4.255A5.946,5.946,0,0,1,10,0a5.946,5.946,0,0,1,4.321,1.772A6.061,6.061,0,0,1,16,6.026,8.392,8.392,0,0,1,15.765,8a3.067,3.067,0,0,1,1.931.68,2.992,2.992,0,0,1,1.043,1.732l1.2,6a3,3,0,0,1-2.351,3.53A2.947,2.947,0,0,1,17,20ZM8.2,14.069a2.981,2.981,0,0,1-.672,1.043L10.414,18H17a1.431,1.431,0,0,0,.2-.02.986.986,0,0,0,.634-.425,1,1,0,0,0,.146-.751L17.42,14H11.542c-.3.227-.608.435-.909.619-.132.081-.306.178-.532.3a.4.4,0,0,1-.339.014c-.208-.087-.384-.167-.525-.239A9.531,9.531,0,0,1,8.2,14.069ZM2.18,16l-.16.8A.964.964,0,0,0,2,17a1,1,0,0,0,1,1H7.586L5.58,15.995C5.516,16,5.456,16,5.4,16ZM4.2,10a1,1,0,0,0-.981.8L2.58,14H5.4a.994.994,0,0,0,.976-.784l.134-.6A9.171,9.171,0,0,1,4.783,10ZM10,2.009A3.988,3.988,0,0,0,7.127,3.158,4.038,4.038,0,0,0,6,6.026a7.282,7.282,0,0,0,2.354,5.6,10.568,10.568,0,0,0,1.259.956.4.4,0,0,0,.223.068.4.4,0,0,0,.24-.08,14.51,14.51,0,0,0,1.47-1.226A7.479,7.479,0,0,0,14,6.026a4.037,4.037,0,0,0-1.127-2.869A3.989,3.989,0,0,0,10,2.009ZM15.015,10a10.753,10.753,0,0,1-1.35,2h3.354l-.239-1.2A1,1,0,0,0,15.8,10ZM10,8.035a2.009,2.009,0,1,1,2-2.009A2.007,2.007,0,0,1,10,8.035Z"
            transform="translate(2 2)" />
    </g>
</svg>