<svg xmlns="http://www.w3.org/2000/svg" width="23.007" height="14.113" viewBox="0 0 23.007 14.113">

    <g transform="translate(0.5 0.5)">
        <path fill="#fff"
            d="M3.817,8.392.2,4.775.187,4.763l0-.005L.176,4.751.169,4.744l0-.005L.158,4.73l0,0L.147,4.717l0,0L.137,4.7l0,0L.127,4.69l0,0-.007-.01,0,0L.109,4.664l0-.005L.1,4.65l0-.006,0-.007,0-.008,0-.005L.079,4.613v0A.679.679,0,0,1,.213,3.8L3.817.2a.678.678,0,0,1,.959.96L2.316,3.617H13.34a.678.678,0,0,1,0,1.357H2.316l2.46,2.46a.678.678,0,1,1-.959.959Z"
            transform="translate(0)" />
        <path fill="#fff"  opacity="0.5" 
            d="M3.816,8.393.53,5.107A.755.755,0,0,1,0,4.322q0-.027,0-.055a.754.754,0,0,1,.53-.782L3.816.2a.678.678,0,0,1,.959.958L2.453,3.481h9.19c.327,0,.591.365.591.815s-.265.815-.591.815H2.453L4.776,7.433a.678.678,0,1,1-.959.959Z"
            transform="translate(22.007 13.113) rotate(180)" />
    </g>
</svg>