<svg xmlns="http://www.w3.org/2000/svg" width="29.298" height="19.981" viewBox="0 0 29.298 19.981">

    <g opacity="0.8" transform="translate(-5.761 30.715) rotate(-45)">
        <path fill="#fff" opacity="0.5"
            d="M2.61,4.557V8.344a1.255,1.255,0,0,1-1.22,1.391A1.391,1.391,0,0,1,0,8.344V.834A.834.834,0,0,1,.834,0H8.344A1.391,1.391,0,0,1,9.734,1.391,1.255,1.255,0,0,1,8.344,2.61H4.557l6.161,6.133a1.4,1.4,0,1,1-1.975,1.975Z"
            transform="translate(26.818 0.513)" />
        <path fill="#fff"
            d="M8.515,6.568V2.781a1.255,1.255,0,0,1,1.22-1.391,1.391,1.391,0,0,1,1.391,1.391v7.509a.834.834,0,0,1-.834.834H2.781A1.391,1.391,0,0,1,1.391,9.734a1.255,1.255,0,0,1,1.391-1.22H6.568L.407,2.382A1.4,1.4,0,0,1,2.382.407Z"
            transform="translate(20.23 -12.082)" />
    </g>
</svg>