<svg xmlns="http://www.w3.org/2000/svg" width="15.054" height="24.398" viewBox="0 0 15.054 24.398">

    <g transform="translate(0 24.398) rotate(-90)">
        <path fill="#e6007a"
            d="M4.381,9.634.228,5.482.214,5.468.209,5.462.2,5.454.194,5.446.189,5.44.181,5.43l0,0-.008-.01,0,0L.157,5.4l0,0L.145,5.384l0,0L.135,5.369l0,0L.125,5.354l0-.006-.006-.01,0-.007,0-.008L.1,5.314l0-.006L.09,5.3l0,0a.779.779,0,0,1,.155-.927L4.381.228a.779.779,0,0,1,1.1,1.1L2.659,4.152H15.314a.779.779,0,0,1,0,1.558H2.658L5.482,8.533a.778.778,0,1,1-1.1,1.1Z"
            transform="translate(0)" />
        <path fill="#fff"
            d="M4.381,9.634.228,5.482.214,5.468.209,5.462.2,5.454.194,5.446.189,5.44.181,5.43l0,0-.008-.01,0,0L.157,5.4l0,0L.145,5.384l0,0L.135,5.369l0,0L.125,5.354l0-.006-.006-.01,0-.007,0-.008L.1,5.314l0-.006L.09,5.3l0,0a.779.779,0,0,1,.155-.927L4.381.228a.779.779,0,0,1,1.1,1.1L2.659,4.152H15.314a.779.779,0,0,1,0,1.558H2.658L5.482,8.533a.778.778,0,1,1-1.1,1.1Z"
            transform="translate(24.398 15.054) rotate(180)" />
    </g>
</svg>