<svg xmlns="http://www.w3.org/2000/svg" width="20.001" height="18" viewBox="0 0 20.001 18">

    <g transform="translate(-2 -3)">
        <path fill="#fff" opacity="0.5" d="M1,18a1,1,0,1,1,0-2H8a1,1,0,1,1,0,2ZM12,2a1,1,0,0,1,0-2h6a1,1,0,1,1,0,2Z"
            transform="translate(2 3)" />
        <path fill="#fff"
            d="M19.6,18H18.383a.4.4,0,0,1-.4-.343l-.6-4.143A.6.6,0,0,0,16.795,13H13.206a.6.6,0,0,0-.594.515l-.6,4.143a.4.4,0,0,1-.4.343H10.4a.4.4,0,0,1-.4-.457L11.591,6.571A3,3,0,0,1,14.56,4h.879a3,3,0,0,1,2.969,2.571L20,17.543a.4.4,0,0,1-.339.453A.4.4,0,0,1,19.6,18ZM15,6a1.512,1.512,0,0,0-1.489,1.288l-.471,3.254a.4.4,0,0,0,.4.457h3.126a.4.4,0,0,0,.4-.457l-.471-3.254A1.511,1.511,0,0,0,15,6ZM1,14a1,1,0,0,1-.317-1.95l1.9-.632c.078-.026.145-.05.2-.074A6.993,6.993,0,0,1,1,6.675V4H.4A.4.4,0,0,1,0,3.6V2.4A.4.4,0,0,1,.4,2H3.5V.4A.4.4,0,0,1,3.9,0H5.1a.4.4,0,0,1,.4.4V2H8.6a.4.4,0,0,1,.4.4V3.6a.4.4,0,0,1-.4.4H8V6.675a6.993,6.993,0,0,1-1.786,4.67c.055.021.116.044.2.074l1.9.632a1,1,0,0,1-.633,1.9l-1.9-.633A7,7,0,0,1,4.5,12.738a6.962,6.962,0,0,1-1.286.579l-1.9.633A1,1,0,0,1,1,14ZM3,4V6.675a5.032,5.032,0,0,0,1.5,3.571A5.03,5.03,0,0,0,6,6.675V4Z"
            transform="translate(2 3)" />
    </g>
</svg>