<svg xmlns="http://www.w3.org/2000/svg" width="20" height="18" viewBox="0 0 20 18">

    <g transform="translate(-2 -3)">
        <path fill="#fff" opacity="0.5"
            d="M2.152,6.067a1,1,0,0,1,.4-1.96A2.679,2.679,0,0,0,3.8,4.056a1,1,0,0,1,.563,1.92,4.589,4.589,0,0,1-1.294.182A4.632,4.632,0,0,1,2.152,6.067ZM2.7,2.5A4.763,4.763,0,0,1,.5,1.866,1,1,0,1,1,1.5.134,2.754,2.754,0,0,0,2.778.5a1,1,0,0,1-.037,2Z"
            transform="translate(2.002 8.63)" />
        <path fill="#fff"
            d="M18.355,5.983a.638.638,0,0,0-.362.422A11.783,11.783,0,0,1,6,18,10.111,10.111,0,0,1,.469,16.369,1.119,1.119,0,0,1,0,15.43a1.172,1.172,0,0,1,1.167-1.178,8.9,8.9,0,0,0,4.2-2.024,1,1,0,1,1,1.271,1.544,13.276,13.276,0,0,1-3.05,1.865A9.67,9.67,0,0,0,6,16,9.8,9.8,0,0,0,16,6c0-.477.114-.722.84-1.257,0,0-.437-.437-.77-.825-.146-.171-.707-.854-.816-.976A2.68,2.68,0,0,0,13.231,2a2.949,2.949,0,0,0-2.848,2.99l.013.127a1.611,1.611,0,0,1-1.8,1.768A10.541,10.541,0,0,1,1.211,2.614,1,1,0,1,1,2.789,1.386a8.524,8.524,0,0,0,5.6,3.448A4.94,4.94,0,0,1,13.231,0a4.675,4.675,0,0,1,3.514,1.608c.144.161.723.868.843,1.008a3.187,3.187,0,0,0,.9.868c.29.128,1.159.068,1.408.561a1,1,0,0,1-.442,1.343A10.306,10.306,0,0,0,18.355,5.983Z"
            transform="translate(2 3)" />
    </g>
</svg>