<svg width="25" height="25" viewBox="0 0 25 25" fill="none" xmlns="http://www.w3.org/2000/svg">
<path fill-rule="evenodd" clip-rule="evenodd" d="M21.8884 15.8956H17.8404C15.9434 15.8956 14.3994 14.3526 14.3984 12.4566C14.3984 10.5586 15.9424 9.01461 17.8404 9.01361H21.8884C22.3024 9.01361 22.6384 9.34961 22.6384 9.76361C22.6384 10.1776 22.3024 10.5136 21.8884 10.5136H17.8404C16.7694 10.5146 15.8984 11.3856 15.8984 12.4556C15.8984 13.5246 16.7704 14.3956 17.8404 14.3956H21.8884C22.3024 14.3956 22.6384 14.7316 22.6384 15.1456C22.6384 15.5596 22.3024 15.8956 21.8884 15.8956" fill="#1C1C26"/>
<path fill-rule="evenodd" clip-rule="evenodd" d="M18.2983 13.1436H17.9863C17.5723 13.1436 17.2363 12.8076 17.2363 12.3936C17.2363 11.9796 17.5723 11.6436 17.9863 11.6436H18.2983C18.7123 11.6436 19.0483 11.9796 19.0483 12.3936C19.0483 12.8076 18.7123 13.1436 18.2983 13.1436" fill="#1C1C26"/>
<mask id="mask0_1042_241" style="mask-type:alpha" maskUnits="userSpaceOnUse" x="2" y="3" width="21" height="20">
<path fill-rule="evenodd" clip-rule="evenodd" d="M2 3H22.6386V22.1729H2V3Z" fill="white"/>
</mask>
<g mask="url(#mask0_1042_241)">
<path fill-rule="evenodd" clip-rule="evenodd" d="M7.998 4.5C5.518 4.5 3.5 6.518 3.5 8.998V16.175C3.5 18.655 5.518 20.673 7.998 20.673H16.642C19.122 20.673 21.139 18.655 21.139 16.175V8.998C21.139 6.518 19.122 4.5 16.642 4.5H7.998ZM16.642 22.173H7.998C4.691 22.173 2 19.482 2 16.175V8.998C2 5.69 4.691 3 7.998 3H16.642C19.949 3 22.639 5.69 22.639 8.998V16.175C22.639 19.482 19.949 22.173 16.642 22.173V22.173Z" fill="#1C1C26"/>
</g>
<path fill-rule="evenodd" clip-rule="evenodd" d="M12.6842 9.03809H7.28516C6.87116 9.03809 6.53516 8.70209 6.53516 8.28809C6.53516 7.87409 6.87116 7.53809 7.28516 7.53809H12.6842C13.0982 7.53809 13.4342 7.87409 13.4342 8.28809C13.4342 8.70209 13.0982 9.03809 12.6842 9.03809" fill="#1C1C26"/>
</svg>
