<svg width="344" height="266" viewBox="0 0 344 266" fill="none" xmlns="http://www.w3.org/2000/svg">
<rect width="344" height="260.704" rx="30" transform="matrix(1 0 0 -1 0 263.705)" fill="#1C1C26"/>
<rect x="0.5" y="-0.5" width="343" height="259.704" rx="29.5" transform="matrix(1 0 0 -1 0 262.705)" stroke="#8BA1BE" stroke-opacity="0.2"/>
<path d="M70.9831 214.746C100.911 143.109 -62.9128 81.706 173.783 29.2521C241.504 11.1063 291.753 45.3982 304.676 93.6286C317.6 141.859 273.177 195.668 205.456 213.814C137.735 231.96 67.4565 272.728 70.9831 214.746Z" fill="#87879F" fill-opacity="0.1"/>
<path opacity="0.18" d="M123.093 243.682C123.093 243.682 90.2593 249.013 88.0189 259.674C86.1646 268.327 221.131 264.773 226.693 262.61C233.801 259.829 238.746 253.416 239.75 245.845L123.093 243.682Z" fill="black"/>
<path d="M207.349 96.5331L156.758 89.0405L140.505 198.782L191.097 206.275L207.349 96.5331Z" fill="#E6007A"/>
<path d="M236.232 255.403H126.064C121.97 255.403 118.725 252.081 118.725 248.064V164.396C118.725 160.301 122.047 157.056 126.064 157.056H236.232C240.326 157.056 243.571 160.378 243.571 164.396V248.064C243.571 252.081 240.249 255.403 236.232 255.403Z" fill="#E6007A"/>
<path opacity="0.72" d="M251.637 126.034L209.239 97.4341L147.201 189.403L189.599 218.003L251.637 126.034Z" fill="#F9FBFC"/>
<path d="M176.533 102.776L125.763 108.923L139.098 219.053L189.868 212.906L176.533 102.776Z" fill="white"/>
<path opacity="0.18" d="M189.957 212.912L139.199 219.093L132.169 160.919L183.544 160.069L189.957 212.912Z" fill="#001C59"/>
<path d="M199.766 215.461L199.38 215.384L149.318 203.178L149.395 202.791L175.74 94.6328L176.126 94.7101L226.188 106.917L226.111 107.303L199.766 215.461ZM150.245 202.637L199.226 214.534L225.261 107.457L176.28 95.5599L150.245 202.637Z" fill="#00376E"/>
<path d="M186.171 171.425C184.857 171.425 183.544 171.271 182.231 170.962C173.269 168.799 167.784 159.76 169.947 150.798C171.029 146.472 173.655 142.763 177.518 140.446C181.304 138.128 185.862 137.433 190.188 138.514C199.15 140.678 204.635 149.716 202.472 158.678C200.618 166.249 193.742 171.425 186.171 171.425ZM186.171 138.746C183.312 138.746 180.454 139.519 177.905 141.064C174.273 143.304 171.724 146.781 170.72 150.953C169.715 155.124 170.411 159.373 172.574 163.005C174.814 166.636 178.291 169.185 182.385 170.189C190.961 172.275 199.536 167.022 201.622 158.446C202.626 154.275 201.931 150.026 199.768 146.394C197.528 142.763 194.051 140.214 189.956 139.21C188.72 138.901 187.407 138.746 186.171 138.746Z" fill="#00376E"/>
<path d="M159.131 205.187L158.358 205.032L159.363 200.86C157.122 200.088 155.732 197.847 156.118 195.453L151.482 194.294L151.637 193.521L156.967 194.834L156.89 195.221C156.658 196.302 156.813 197.384 157.354 198.311C157.895 199.238 158.822 199.933 159.903 200.165L160.29 200.242L159.131 205.187Z" fill="#00376E"/>
<path d="M223.871 116.574L219.004 115.415L219.081 115.029C219.622 112.866 218.231 110.625 216.068 110.085L215.682 110.007L216.995 104.677L217.768 104.831L216.609 109.467C218.849 110.239 220.24 112.48 219.854 114.875L224.025 115.879L223.871 116.574Z" fill="#00376E"/>
<path d="M178.751 105.526L173.42 104.212L173.575 103.44L178.21 104.599C178.596 103.517 179.292 102.59 180.296 101.972C181.301 101.354 182.459 101.122 183.618 101.354L184.622 97.1821L185.395 97.3366L184.236 102.204L183.85 102.127C182.768 101.895 181.687 102.049 180.76 102.59C179.833 103.131 179.137 104.058 178.905 105.139L178.751 105.526Z" fill="#00376E"/>
<path d="M191.345 213.299L190.573 213.144L191.886 207.813L192.272 207.89C193.354 208.122 194.436 207.968 195.362 207.427C196.29 206.886 196.985 205.959 197.217 204.878L197.294 204.491L202.161 205.65L202.006 206.423L197.835 205.418C197.062 207.659 194.822 209.049 192.427 208.663L191.345 213.299Z" fill="#00376E"/>
<path d="M227.966 263.67H117.799C113.704 263.67 110.459 260.348 110.459 256.33V172.739C110.459 168.645 113.781 165.4 117.799 165.4H227.966C232.061 165.4 235.305 168.722 235.305 172.739V256.33C235.305 260.425 232.061 263.67 227.966 263.67Z" fill="white"/>
<path opacity="0.18" d="M253.614 222.182C253.614 225.427 250.987 228.054 247.82 228.054H192.272C189.028 228.054 186.401 225.427 186.401 222.182V202.328C186.401 202.328 187.482 221.951 195.131 222.337C211.2 223.11 253.614 222.182 253.614 222.182Z" fill="#001C59"/>
<path opacity="0.18" d="M235.305 256.33C235.305 260.424 231.983 263.669 227.966 263.669H117.799C113.704 263.669 110.459 260.347 110.459 256.33V172.739C110.459 168.644 117.567 250.999 129.233 254.63C140.898 258.338 235.305 256.33 235.305 256.33Z" fill="#001C59"/>
<path d="M247.742 228.362H192.195C188.796 228.362 185.938 225.581 185.938 222.105V202.25C185.938 198.851 188.719 195.992 192.195 195.992H247.742C251.141 195.992 254 198.773 254 202.25V222.105C254 225.581 251.141 228.362 247.742 228.362ZM192.195 196.842C189.182 196.842 186.71 199.314 186.71 202.327V222.182C186.71 225.195 189.182 227.667 192.195 227.667H247.742C250.755 227.667 253.228 225.195 253.228 222.182V202.327C253.228 199.314 250.755 196.842 247.742 196.842H192.195Z" fill="#00376E"/>
<path d="M200.462 216.928C203.406 216.928 205.793 214.542 205.793 211.598C205.793 208.654 203.406 206.267 200.462 206.267C197.518 206.267 195.131 208.654 195.131 211.598C195.131 214.542 197.518 216.928 200.462 216.928Z" fill="#E6007A"/>
</svg>
