<svg xmlns="http://www.w3.org/2000/svg" width="21" height="18" viewBox="0 0 21 18">

    <g transform="translate(-22.873 -25)">
        <path fill="#fff" opacity="0.5"
            d="M1.068,0H3.2A1.05,1.05,0,0,1,4.27,1.031,1.05,1.05,0,0,1,3.2,2.062H1.068A1.05,1.05,0,0,1,0,1.031,1.05,1.05,0,0,1,1.068,0Z"
            transform="translate(35.639 34.14)" />
        <path fill="#fff"
            d="M17.85,18H3.15A3.081,3.081,0,0,1,0,15V3A3.081,3.081,0,0,1,3.15,0h12.6A3.081,3.081,0,0,1,18.9,3V4.171A3.019,3.019,0,0,1,21,7v8A3.081,3.081,0,0,1,17.85,18ZM3.15,6A1.027,1.027,0,0,0,2.1,7v8a1.027,1.027,0,0,0,1.05,1h14.7a1.027,1.027,0,0,0,1.05-1V7a1.027,1.027,0,0,0-1.05-1Zm0-4A1.027,1.027,0,0,0,2.1,3,1.027,1.027,0,0,0,3.15,4H16.8V3a1.027,1.027,0,0,0-1.05-1Z"
            transform="translate(22.873 25)" />
    </g>
</svg>