<svg width="29" height="26" viewBox="0 0 29 26" fill="none" xmlns="http://www.w3.org/2000/svg">
<rect x="9.91699" y="22.6667" width="8.5" height="2.83333" rx="0.85" fill="white" fill-opacity="0.5"/>
<path fill-rule="evenodd" clip-rule="evenodd" d="M20.6836 25.5C20.2141 25.5 19.8336 25.1194 19.8336 24.65V23.5167C19.8336 23.0472 20.2141 22.6667 20.6836 22.6667H24.0345C24.3474 22.6667 24.6011 22.413 24.6011 22.1C24.6011 22.0025 24.576 21.9066 24.5281 21.8217L14.6603 4.31819C14.5066 4.04557 14.161 3.94916 13.8884 4.10285C13.7983 4.15364 13.7239 4.22811 13.6731 4.3182L3.8057 21.8217C3.65201 22.0943 3.74843 22.4399 4.02106 22.5936C4.10599 22.6415 4.20184 22.6667 4.29933 22.6667H7.65025C8.11969 22.6667 8.50024 23.0472 8.50024 23.5167V24.65C8.50024 25.1194 8.11969 25.5 7.65024 25.5H2.36771C1.06019 25.5 0.000244141 24.4488 0.000244141 23.152C0.000244141 22.7488 0.104954 22.3523 0.304285 22.0009L12.1033 1.19729C12.7443 0.0670549 14.1878 -0.333797 15.3274 0.301958C15.7053 0.512782 16.0176 0.822487 16.2301 1.19729L28.0291 22.0009C28.6701 23.1311 28.266 24.5627 27.1264 25.1985C26.772 25.3962 26.3723 25.5 25.9657 25.5H20.6836ZM13.3169 18.4167H15.0169C15.3298 18.4167 15.5835 18.6704 15.5835 18.9833V20.6833C15.5835 20.9963 15.3298 21.25 15.0169 21.25H13.3169C13.0039 21.25 12.7502 20.9963 12.7502 20.6833V18.9833C12.7502 18.6704 13.0039 18.4167 13.3169 18.4167ZM13.3169 8.5H15.0169C15.3298 8.5 15.5835 8.75371 15.5835 9.06667V16.4333C15.5835 16.7463 15.3298 17 15.0169 17H13.3169C13.0039 17 12.7502 16.7463 12.7502 16.4333V9.06667C12.7502 8.75371 13.0039 8.5 13.3169 8.5Z" fill="white"/>
</svg>
