<svg xmlns="http://www.w3.org/2000/svg" width="15.342" height="15.349" viewBox="0 0 15.342 15.349">

    <g transform="translate(-28.894 -24.654)">
        <path fill="#fff" opacity="0.5" d="M1.919,0A1.919,1.919,0,1,1,0,1.919,1.919,1.919,0,0,1,1.919,0Z"
            transform="translate(34.651 36.166)" />
        <path fill="#fff"
            d="M8.635,1.03a1.919,1.919,0,0,1-1.923,3.32,3.844,3.844,0,0,0-3.833,0A1.919,1.919,0,1,1,.96,1.024a7.682,7.682,0,0,1,7.675.006Z"
            transform="translate(31.777 30.41)" />
        <path fill="#fff"
            d="M14.383,1.792a1.919,1.919,0,1,1-1.919,3.323,9.607,9.607,0,0,0-9.584,0A1.919,1.919,0,0,1,.958,1.8a13.445,13.445,0,0,1,13.425-.006Z"
            transform="translate(28.894 24.654)" />
    </g>
</svg>