<svg xmlns="http://www.w3.org/2000/svg" width="19.192" height="28.456" viewBox="0 0 19.192 28.456">

    <g transform="translate(0)">
        <path fill="#2E303C"
            d="M16.313,0H2.878A2.909,2.909,0,0,0,0,2.932V14.661a2.909,2.909,0,0,0,2.878,2.932H14.394a2.909,2.909,0,0,0,2.878-2.932V13.516a2.936,2.936,0,0,0,1.919-2.766V2.932A2.909,2.909,0,0,0,16.313,0ZM2.878,11.728a.97.97,0,0,1-.959-.977V2.932a.97.97,0,0,1,.959-.977H16.313a.97.97,0,0,1,.959.977v7.819a.97.97,0,0,1-.959.977Zm0,3.91a.977.977,0,0,1,0-1.955H15.354v.977a.97.97,0,0,1-.959.977Z"
            transform="translate(19.192 28.456) rotate(180)" />
        <path fill="#e6007a"
            d="M3.475,3.261H7.609a1.087,1.087,0,1,1,0,2.174H3.475L5.054,6.782A1.087,1.087,0,0,1,3.642,8.436L.777,5.99a2.124,2.124,0,0,1,0-3.284L3.642.26A1.087,1.087,0,0,1,5.054,1.914Z"
            transform="translate(13.943) rotate(90)" />
    </g>
</svg>